<?xml version="1.0" encoding="UTF-8" standalone="no"?>
<!-- Created with Inkscape (http://www.inkscape.org/) -->

<svg
   width="210mm"
   height="297mm"
   viewBox="0 0 210 297"
   version="1.1"
   id="svg5"
   inkscape:version="1.2.2 (b0a8486, 2022-12-01)"
   sodipodi:docname="UI.svg"
   xml:space="preserve"
   xmlns:inkscape="http://www.inkscape.org/namespaces/inkscape"
   xmlns:sodipodi="http://sodipodi.sourceforge.net/DTD/sodipodi-0.dtd"
   xmlns:xlink="http://www.w3.org/1999/xlink"
   xmlns="http://www.w3.org/2000/svg"
   xmlns:svg="http://www.w3.org/2000/svg"><sodipodi:namedview
     id="namedview7"
     pagecolor="#434343"
     bordercolor="#000000"
     borderopacity="0.25"
     inkscape:showpageshadow="2"
     inkscape:pageopacity="0"
     inkscape:pagecheckerboard="0"
     inkscape:deskcolor="#d1d1d1"
     inkscape:document-units="mm"
     showgrid="false"
     showguides="true"
     inkscape:zoom="2.3168661"
     inkscape:cx="206.31318"
     inkscape:cy="127.75879"
     inkscape:window-width="1366"
     inkscape:window-height="699"
     inkscape:window-x="0"
     inkscape:window-y="32"
     inkscape:window-maximized="1"
     inkscape:current-layer="layer1"><sodipodi:guide
       position="32.832574,303.88861"
       orientation="1,0"
       id="guide1797"
       inkscape:locked="false" /><sodipodi:guide
       position="108.26046,317.099"
       orientation="1,0"
       id="guide379"
       inkscape:locked="false" /></sodipodi:namedview><defs
     id="defs2"><linearGradient
       inkscape:collect="always"
       id="linearGradient1673"><stop
         style="stop-color:#f60ff0;stop-opacity:1;"
         offset="0"
         id="stop1669" /><stop
         style="stop-color:#26b0ff;stop-opacity:1;"
         offset="1"
         id="stop1671" /></linearGradient><linearGradient
       inkscape:collect="always"
       xlink:href="#linearGradient1673"
       id="linearGradient1675"
       x1="49.055199"
       y1="75.967354"
       x2="66.408508"
       y2="45.618031"
       gradientUnits="userSpaceOnUse"
       gradientTransform="translate(-40.540409)" /></defs><g
     inkscape:label="Layer 1"
     inkscape:groupmode="layer"
     id="layer1"><path
       id="circle1799"
       style="fill:#ffffff;fill-opacity:1;stroke:none;stroke-width:0.44465;paint-order:markers stroke fill"
       d="M 17.864026 3.543453 A 9.0126408 9.0126408 0 0 0 8.8516561 12.556856 A 9.0126408 9.0126408 0 0 0 13.755233 20.571871 C 13.723313 20.731802 13.706657 20.897336 13.706657 21.066931 L 13.706657 21.966101 C 13.706657 23.349232 14.820017 24.462073 16.203145 24.462073 L 19.448942 24.462073 C 20.832072 24.462073 21.945431 23.349232 21.945431 21.966101 L 21.945431 21.066931 C 21.945431 20.910124 21.930973 20.756691 21.903573 20.608044 A 9.0126408 9.0126408 0 0 0 26.876912 12.556856 A 9.0126408 9.0126408 0 0 0 17.864026 3.543453 z M 17.71158 7.5752482 A 4.6901011 4.6901011 0 0 1 22.401733 12.265401 A 4.6901011 4.6901011 0 0 1 17.71158 16.955037 A 4.6901011 4.6901011 0 0 1 13.021427 12.265401 A 4.6901011 4.6901011 0 0 1 17.71158 7.5752482 z M 17.864026 25.249622 A 3.5862396 3.5862396 0 0 0 14.277681 28.835449 A 3.5862396 3.5862396 0 0 0 17.864026 32.421794 A 3.5862396 3.5862396 0 0 0 21.45037 28.835449 A 3.5862396 3.5862396 0 0 0 17.864026 25.249622 z " /><path
       id="path1667"
       style="fill:url(#linearGradient1675);fill-opacity:1;stroke:none;stroke-width:0.44465;paint-order:markers stroke fill"
       d="m 17.303178,45.513592 a 9.0126408,9.0126408 0 0 0 -9.0123704,9.013403 9.0126408,9.0126408 0 0 0 4.9035774,8.015015 c -0.03192,0.159931 -0.04858,0.325465 -0.04858,0.49506 v 0.89917 c 0,1.383131 1.11336,2.495972 2.496488,2.495972 h 3.245797 c 1.38313,0 2.496489,-1.112841 2.496489,-2.495972 v -0.89917 c 0,-0.156807 -0.01446,-0.31024 -0.04186,-0.458887 a 9.0126408,9.0126408 0 0 0 4.973339,-8.051188 9.0126408,9.0126408 0 0 0 -9.012886,-9.013403 z m -0.152446,4.031795 a 4.6901011,4.6901011 0 0 1 4.690153,4.690153 4.6901011,4.6901011 0 0 1 -4.690153,4.689636 4.6901011,4.6901011 0 0 1 -4.690153,-4.689636 4.6901011,4.6901011 0 0 1 4.690153,-4.690153 z m 0.152446,17.674374 a 3.5862396,3.5862396 0 0 0 -3.586345,3.585827 3.5862396,3.5862396 0 0 0 3.586345,3.586345 3.5862396,3.5862396 0 0 0 3.586344,-3.586345 3.5862396,3.5862396 0 0 0 -3.586344,-3.585827 z" /><path
       style="opacity:1;fill:#ffffff;fill-opacity:1;stroke:none;stroke-width:0.658178;paint-order:markers stroke fill"
       d="m 41.456243,24.188799 c 0.900616,-3.570185 3.22676,-5.924478 6.976046,-7.064913 L 38.123737,13.880248 Z"
       id="path5740"
       sodipodi:nodetypes="cccc" /><path
       id="path5766"
       style="opacity:1;fill:#ffffff;fill-opacity:0.99104;stroke:none;stroke-width:0.584467;stroke-opacity:1;paint-order:markers stroke fill"
       d="m 72.428793,13.503579 c -0.163582,-0.0036 -2.797067,2.799743 -3.537322,3.502306 l 4.438525,0.02243 c 0.667494,-0.702911 1.107707,-1.216624 1.107707,-1.348456 0,-0.549273 -1.347791,-2.16186 -2.00891,-2.176275 z m -3.916085,3.866392 c -1.546129,1.503562 -1.592884,1.421444 -2.8177,2.734786 l 4.739878,-0.07144 c 1.336124,-1.270008 1.058964,-1.108526 2.531024,-2.626248 z m -3.285552,3.237657 c -0.304037,0.327736 -0.596596,0.680022 -0.596596,0.680022 0,0 -1.0185,2.727026 -0.850993,2.901872 0.167507,0.174847 3.013363,-0.781214 3.013363,-0.781214 0,0 2.779901,-2.558176 3.143719,-2.902501 z"
       sodipodi:nodetypes="sccsscccccccsccc" /><path
       id="rect5854"
       style="opacity:1;fill:#ffffff;fill-opacity:0.99104;stroke:none;stroke-width:0.837792;stroke-opacity:1;paint-order:markers stroke fill"
       d="M 95.292375 12.41578 C 94.67884 12.41578 94.065436 12.651049 93.595321 13.121163 L 90.594987 16.12098 L 95.754362 21.280355 L 98.754179 18.280021 C 99.694412 17.339791 99.694412 15.826142 98.754179 14.885913 L 96.989429 13.121163 C 96.519314 12.651049 95.905909 12.41578 95.292375 12.41578 z M 89.405912 17.32039 C 88.590388 18.265398 88.631029 19.684849 89.528385 20.582206 L 91.293136 22.346956 C 92.190493 23.244313 93.609944 23.284953 94.554952 22.46943 L 89.405912 17.32039 z " /><rect
       style="fill:none;fill-opacity:0.992157;stroke:#ffffff;stroke-width:0.78557;stroke-opacity:1;paint-order:markers stroke fill"
       id="rect295"
       width="4.5062189"
       height="4.5062189"
       x="117.49793"
       y="15.945869"
       rx="1.0479589"
       ry="1.047959" /><rect
       style="fill:none;fill-opacity:0.992157;stroke:#f7a1c9;stroke-width:0.774405;stroke-opacity:1;paint-order:markers stroke fill"
       id="rect1161"
       width="4.4421706"
       height="4.4421706"
       x="127.75642"
       y="15.977893"
       rx="1.033064"
       ry="1.033064" /><rect
       style="fill:none;fill-opacity:0.992157;stroke:#f7a1c9;stroke-width:0.812415;stroke-opacity:1;paint-order:markers stroke fill"
       id="rect1163"
       width="3.1213429"
       height="0.76552707"
       x="128.32826"
       y="16.416134"
       rx="0"
       ry="0" /><rect
       style="fill:#f7a1c9;fill-opacity:1;stroke:#f7a1c9;stroke-width:0.51411;stroke-opacity:1;paint-order:markers stroke fill"
       id="rect1165"
       width="0.89947033"
       height="1.0638312"
       x="127.87714"
       y="17.197432"
       rx="0"
       ry="0" /><rect
       style="fill:#f7a1c9;fill-opacity:1;stroke:#f7a1c9;stroke-width:0.501482;stroke-opacity:1;paint-order:markers stroke fill"
       id="rect1167"
       width="0.69295394"
       height="1.3138684"
       x="131.06471"
       y="17.439222"
       rx="0"
       ry="0" /><rect
       style="fill:#ffffff;fill-opacity:1;stroke:none;stroke-width:1.679;stroke-opacity:1;paint-order:markers stroke fill"
       id="rect1129"
       width="11.478985"
       height="3.0237322"
       x="37.11861"
       y="89.398926"
       transform="rotate(-45)"
       rx="1.5118661"
       ry="1.5118661" /><path
       id="rect381"
       style="fill:#ffffff;stroke-width:1.13679;paint-order:markers stroke fill"
       d="m 39.638178,37.222622 -0.583727,0.716286 c -0.361969,0.444222 -0.361969,1.15967 0,1.603892 l 4.065157,4.989197 c 0.36197,0.444223 0.945021,0.444222 1.30699,0 L 48.492143,39.5428 c 0.361969,-0.444221 0.361969,-1.159671 0,-1.603892 l -0.583727,-0.716287 -3.481818,4.272912 c -0.361969,0.444221 -0.945021,0.444222 -1.306989,0 z" /><path
       id="path1689"
       style="fill:#ffffff;stroke-width:1.13868;paint-order:markers stroke fill"
       d="m 64.533796,45.185904 0.71748,0.5847 c 0.444963,0.362572 1.161604,0.362572 1.606566,0 l 4.997513,-4.071933 c 0.444963,-0.362572 0.444963,-0.946596 0,-1.309168 l -4.997513,-4.072322 c -0.444962,-0.362572 -1.161603,-0.362572 -1.606566,0 l -0.71748,0.5847 4.280033,3.487622 c 0.444963,0.362572 0.444963,0.946596 10e-7,1.309168 z" /></g></svg>
