<?xml version="1.0" encoding="UTF-8" standalone="no"?>
<!-- Created with Inkscape (http://www.inkscape.org/) -->

<svg
   width="210mm"
   height="297mm"
   viewBox="0 0 210 297"
   version="1.1"
   id="svg5"
   inkscape:version="1.2.2 (b0a8486, 2022-12-01)"
   sodipodi:docname="UI.svg"
   xml:space="preserve"
   xmlns:inkscape="http://www.inkscape.org/namespaces/inkscape"
   xmlns:sodipodi="http://sodipodi.sourceforge.net/DTD/sodipodi-0.dtd"
   xmlns:xlink="http://www.w3.org/1999/xlink"
   xmlns="http://www.w3.org/2000/svg"
   xmlns:svg="http://www.w3.org/2000/svg"><sodipodi:namedview
     id="namedview7"
     pagecolor="#434343"
     bordercolor="#000000"
     borderopacity="0.25"
     inkscape:showpageshadow="2"
     inkscape:pageopacity="0"
     inkscape:pagecheckerboard="0"
     inkscape:deskcolor="#d1d1d1"
     inkscape:document-units="mm"
     showgrid="false"
     showguides="true"
     inkscape:zoom="2.3168661"
     inkscape:cx="174.80509"
     inkscape:cy="295.658"
     inkscape:window-width="1360"
     inkscape:window-height="699"
     inkscape:window-x="0"
     inkscape:window-y="32"
     inkscape:window-maximized="1"
     inkscape:current-layer="layer1"><sodipodi:guide
       position="32.832574,303.88861"
       orientation="1,0"
       id="guide1797"
       inkscape:locked="false" /><sodipodi:guide
       position="108.26046,317.099"
       orientation="1,0"
       id="guide379"
       inkscape:locked="false" /></sodipodi:namedview><defs
     id="defs2"><linearGradient
       inkscape:collect="always"
       id="linearGradient1673"><stop
         style="stop-color:#f60ff0;stop-opacity:1;"
         offset="0"
         id="stop1669" /><stop
         style="stop-color:#26b0ff;stop-opacity:1;"
         offset="1"
         id="stop1671" /></linearGradient><linearGradient
       inkscape:collect="always"
       xlink:href="#linearGradient1673"
       id="linearGradient1675"
       x1="49.055199"
       y1="75.967354"
       x2="66.408508"
       y2="45.618031"
       gradientUnits="userSpaceOnUse"
       gradientTransform="translate(-40.540409)" /></defs><g
     inkscape:label="Layer 1"
     inkscape:groupmode="layer"
     id="layer1"><path
       id="circle1799"
       style="fill:#ffffff;fill-opacity:1;stroke:none;stroke-width:0.44465;paint-order:markers stroke fill"
       d="M 17.864026 3.543453 A 9.0126408 9.0126408 0 0 0 8.8516561 12.556856 A 9.0126408 9.0126408 0 0 0 13.755233 20.571871 C 13.723313 20.731802 13.706657 20.897336 13.706657 21.066931 L 13.706657 21.966101 C 13.706657 23.349232 14.820017 24.462073 16.203145 24.462073 L 19.448942 24.462073 C 20.832072 24.462073 21.945431 23.349232 21.945431 21.966101 L 21.945431 21.066931 C 21.945431 20.910124 21.930973 20.756691 21.903573 20.608044 A 9.0126408 9.0126408 0 0 0 26.876912 12.556856 A 9.0126408 9.0126408 0 0 0 17.864026 3.543453 z M 17.71158 7.5752482 A 4.6901011 4.6901011 0 0 1 22.401733 12.265401 A 4.6901011 4.6901011 0 0 1 17.71158 16.955037 A 4.6901011 4.6901011 0 0 1 13.021427 12.265401 A 4.6901011 4.6901011 0 0 1 17.71158 7.5752482 z M 17.864026 25.249622 A 3.5862396 3.5862396 0 0 0 14.277681 28.835449 A 3.5862396 3.5862396 0 0 0 17.864026 32.421794 A 3.5862396 3.5862396 0 0 0 21.45037 28.835449 A 3.5862396 3.5862396 0 0 0 17.864026 25.249622 z " /><path
       id="path1667"
       style="fill:url(#linearGradient1675);fill-opacity:1;stroke:none;stroke-width:0.44465;paint-order:markers stroke fill"
       d="m 17.303178,45.513592 a 9.0126408,9.0126408 0 0 0 -9.0123704,9.013403 9.0126408,9.0126408 0 0 0 4.9035774,8.015015 c -0.03192,0.159931 -0.04858,0.325465 -0.04858,0.49506 v 0.89917 c 0,1.383131 1.11336,2.495972 2.496488,2.495972 h 3.245797 c 1.38313,0 2.496489,-1.112841 2.496489,-2.495972 v -0.89917 c 0,-0.156807 -0.01446,-0.31024 -0.04186,-0.458887 a 9.0126408,9.0126408 0 0 0 4.973339,-8.051188 9.0126408,9.0126408 0 0 0 -9.012886,-9.013403 z m -0.152446,4.031795 a 4.6901011,4.6901011 0 0 1 4.690153,4.690153 4.6901011,4.6901011 0 0 1 -4.690153,4.689636 4.6901011,4.6901011 0 0 1 -4.690153,-4.689636 4.6901011,4.6901011 0 0 1 4.690153,-4.690153 z m 0.152446,17.674374 a 3.5862396,3.5862396 0 0 0 -3.586345,3.585827 3.5862396,3.5862396 0 0 0 3.586345,3.586345 3.5862396,3.5862396 0 0 0 3.586344,-3.586345 3.5862396,3.5862396 0 0 0 -3.586344,-3.585827 z" /><path
       style="opacity:1;fill:#ffffff;fill-opacity:1;stroke:none;stroke-width:0.658178;paint-order:markers stroke fill"
       d="m 40.975808,24.036056 7.744963,-6.212387 -9.8652,-4.411944 z"
       id="path5740"
       sodipodi:nodetypes="cccc" /><path
       id="rect5854"
       style="opacity:1;fill:#ffffff;fill-opacity:0.99104;stroke:none;stroke-width:0.837792;stroke-opacity:1;paint-order:markers stroke fill"
       d="m 95.292375,12.41578 c -0.613535,0 -1.226939,0.235269 -1.697054,0.705383 l -3.277495,3.237384 5.159375,5.159375 3.276978,-3.237901 c 0.940233,-0.94023 0.940233,-2.453879 0,-3.394108 l -1.76475,-1.76475 C 96.519314,12.651049 95.905909,12.41578 95.292375,12.41578 Z m -5.886463,4.90461 c -0.815524,0.945008 -0.774883,2.364459 0.122473,3.261816 l 1.764751,1.76475 c 0.897357,0.897357 2.316808,0.937997 3.261816,0.122474 z"
       sodipodi:nodetypes="sccccssscsscc" /><rect
       style="fill:none;fill-opacity:0.992157;stroke:#ffffff;stroke-width:0.78557;stroke-opacity:1;paint-order:markers stroke fill"
       id="rect295"
       width="4.5062189"
       height="4.5062189"
       x="117.49793"
       y="15.945869"
       rx="1.0479589"
       ry="1.047959" /><rect
       style="fill:none;fill-opacity:0.992157;stroke:#f7a1c9;stroke-width:0.774405;stroke-opacity:1;paint-order:markers stroke fill"
       id="rect1161"
       width="4.4421706"
       height="4.4421706"
       x="127.75642"
       y="15.977893"
       rx="1.033064"
       ry="1.033064" /><rect
       style="fill:none;fill-opacity:0.992157;stroke:#f7a1c9;stroke-width:0.812415;stroke-opacity:1;paint-order:markers stroke fill"
       id="rect1163"
       width="3.1213429"
       height="0.76552707"
       x="128.32826"
       y="16.416134"
       rx="0"
       ry="0" /><rect
       style="fill:#f7a1c9;fill-opacity:1;stroke:#f7a1c9;stroke-width:0.51411;stroke-opacity:1;paint-order:markers stroke fill"
       id="rect1165"
       width="0.89947033"
       height="1.0638312"
       x="127.87714"
       y="17.197432"
       rx="0"
       ry="0" /><rect
       style="fill:#f7a1c9;fill-opacity:1;stroke:#f7a1c9;stroke-width:0.501482;stroke-opacity:1;paint-order:markers stroke fill"
       id="rect1167"
       width="0.69295394"
       height="1.3138684"
       x="131.06471"
       y="17.439222"
       rx="0"
       ry="0" /><rect
       style="fill:#ffffff;fill-opacity:1;stroke:none;stroke-width:1.679;stroke-opacity:1;paint-order:markers stroke fill"
       id="rect1129"
       width="11.478985"
       height="3.0237322"
       x="37.11861"
       y="89.398926"
       transform="rotate(-45)"
       rx="1.5118661"
       ry="1.5118661" /><path
       id="rect381"
       style="fill:#ffffff;stroke-width:1.13679;paint-order:markers stroke fill"
       d="m 39.638178,37.222622 -0.583727,0.716286 c -0.361969,0.444222 -0.361969,1.15967 0,1.603892 l 4.065157,4.989197 c 0.36197,0.444223 0.945021,0.444222 1.30699,0 L 48.492143,39.5428 c 0.361969,-0.444221 0.361969,-1.159671 0,-1.603892 l -0.583727,-0.716287 -3.481818,4.272912 c -0.361969,0.444221 -0.945021,0.444222 -1.306989,0 z" /><path
       id="path1689"
       style="fill:#ffffff;stroke-width:1.13868;paint-order:markers stroke fill"
       d="m 64.533796,45.185904 0.71748,0.5847 c 0.444963,0.362572 1.161604,0.362572 1.606566,0 l 4.997513,-4.071933 c 0.444963,-0.362572 0.444963,-0.946596 0,-1.309168 l -4.997513,-4.072322 c -0.444962,-0.362572 -1.161603,-0.362572 -1.606566,0 l -0.71748,0.5847 4.280033,3.487622 c 0.444963,0.362572 0.444963,0.946596 10e-7,1.309168 z" /><path
       id="rect304"
       style="fill:#ffffff;stroke:none;stroke-width:1.34124;paint-order:markers stroke fill"
       d="m 42.944359,58.321052 c -0.111758,0 -0.223528,0.04296 -0.309162,0.128598 -0.17127,0.171269 -0.171269,0.446816 0,0.618085 l 1.236648,1.236648 -1.236649,1.236649 c -0.171269,0.171269 -0.171269,0.447055 0,0.618323 0.171269,0.17127 0.447055,0.17127 0.618324,1e-6 l 1.236649,-1.236649 1.236409,1.236649 c 0.171269,0.171269 0.447055,0.171269 0.618324,-1e-6 0.171269,-0.171268 0.171269,-0.447054 0,-0.618323 l -1.236649,-1.236649 1.236649,-1.236648 c 0.171269,-0.171269 0.171269,-0.446816 0,-0.618085 -0.171269,-0.171269 -0.447055,-0.171269 -0.618324,0 L 44.490169,59.686059 43.25352,58.44965 c -0.08563,-0.08563 -0.197404,-0.128598 -0.309161,-0.128598 z" /><path
       id="path359"
       style="fill:#ffffff;fill-opacity:1;stroke:none;stroke-width:1.14509;stroke-dasharray:none;stroke-opacity:1;paint-order:markers stroke fill"
       d="m 57.811211,58.016777 c -1.752638,1.12e-4 -3.39974,1.835114 -3.399775,2.557403 3.5e-5,0.704193 1.647138,2.539193 3.399775,2.539306 1.752904,2.08e-4 3.400456,-1.779151 3.400456,-2.539306 -6.5e-5,-0.722516 -1.647552,-2.557611 -3.400456,-2.557403 z m 6.83e-4,0.732316 c 1.628555,8e-6 2.331477,0.804416 2.331412,1.796673 6.4e-5,0.992255 -0.702859,1.79666 -2.331412,1.796668 -1.628552,-8e-6 -2.413775,-0.804413 -2.413711,-1.796668 -6.5e-5,-0.992257 0.785158,-1.796665 2.413711,-1.796673 z"
       sodipodi:nodetypes="cccccscscs" /><ellipse
       style="fill:#fafafa;fill-opacity:1;stroke:none;stroke-width:1.13784;stroke-dasharray:none;stroke-opacity:1;paint-order:markers stroke fill"
       id="path1071"
       cx="57.771072"
       cy="60.492672"
       rx="1.6090199"
       ry="1.5558033" /><path
       style="fill:#c0c0c0;fill-opacity:1;stroke:none;stroke-width:1.43867;stroke-dasharray:none;stroke-opacity:1;paint-order:markers stroke fill"
       d="m 66.098699,60.583395 c 1.021894,0 2.237431,0.793073 3.392561,0.783578 1.17974,-0.0098 2.179821,-0.785207 3.4525,-0.779213 0.107901,5.09e-4 0.09345,0.359637 0,0.413582 -1.061553,0.612887 -2.25521,0.964295 -3.464491,0.988999 -1.145455,0.02339 -2.209666,-0.245683 -3.320632,-0.8871 -0.129206,-0.0746 -0.209133,-0.519846 -0.05995,-0.519846 z"
       id="path4992"
       sodipodi:nodetypes="ssssssss" /><ellipse
       style="fill:#c0c0c0;stroke-width:0.760889;paint-order:markers stroke fill;fill-opacity:1"
       id="path389"
       cx="66.876221"
       cy="61.388466"
       rx="0.41845238"
       ry="0.58963746" /><ellipse
       style="fill:#c0c0c0;stroke-width:0.760889;paint-order:markers stroke fill;fill-opacity:1"
       id="ellipse391"
       cx="72.174438"
       cy="61.33992"
       rx="0.41845238"
       ry="0.58963746" /><ellipse
       style="fill:#c0c0c0;stroke-width:0.760889;paint-order:markers stroke fill;fill-opacity:1"
       id="ellipse393"
       cx="68.550102"
       cy="61.880264"
       rx="0.41845238"
       ry="0.58963746" /><ellipse
       style="fill:#c0c0c0;stroke-width:0.760889;paint-order:markers stroke fill;fill-opacity:1"
       id="ellipse397"
       cx="70.490196"
       cy="61.899284"
       rx="0.41845238"
       ry="0.58963746" /><path
       id="path515"
       style="fill:#fafafa;stroke-width:0.839999;paint-order:markers stroke fill"
       d="M 72.380595 13.448792 L 71.801302 14.031185 L 73.95776 16.2295 L 74.55824 15.626436 C 74.070873 14.515218 73.353222 13.776125 72.380595 13.448792 z M 70.739868 15.098303 L 64.69941 21.169767 L 63.828145 24.218677 L 66.79799 23.426477 L 72.896842 17.296619 L 70.739868 15.098303 z " /><rect
       style="fill:#fafafa;stroke-width:0.611769;paint-order:markers stroke fill"
       id="rect793"
       width="3.9594412"
       height="3.0831769"
       x="78.459991"
       y="59.557175"
       rx="0.79594302"
       ry="0.79594302" /><path
       id="rect795"
       style="fill:#fafafa;stroke-width:0.688523;paint-order:markers stroke fill"
       d="m 79.272146,57.875851 c -0.440952,0 -0.795901,0.35495 -0.795901,0.795902 v 1.474895 c 0,0.440952 0.354949,0.796325 0.795901,0.796325 h 1.39484 v -0.427812 h -1.050472 c -0.289994,0 -0.523541,-0.233546 -0.523541,-0.523542 v -0.969991 c 0,-0.289996 0.233547,-0.523542 0.523541,-0.523542 h 1.64653 c 0.289994,0 0.52354,0.233546 0.52354,0.523542 v 0.03897 h 0.616729 v -0.388843 c 0,-0.440953 -0.35495,-0.795902 -0.795902,-0.795902 z"
       sodipodi:nodetypes="ssssccssssssccsss" /><rect
       style="fill:#fafafa;stroke-width:0.624005;paint-order:markers stroke fill"
       id="rect803"
       width="4.0386291"
       height="3.1448395"
       x="86.115593"
       y="59.543156"
       rx="0.81186169"
       ry="0.81186169" /><path
       id="path805"
       style="fill:#fafafa;stroke-width:0.702294;paint-order:markers stroke fill"
       d="m 86.943994,57.828207 c -0.449771,0 -0.811819,0.362049 -0.811819,0.81182 v 1.504392 c 0,0.449771 0.362048,0.812252 0.811819,0.812252 h 1.422736 v -0.436369 h -1.071481 c -0.295794,0 -0.534012,-0.238217 -0.534012,-0.534013 v -0.98939 c 0,-0.295796 0.238218,-0.534013 0.534012,-0.534013 h 1.67946 c 0.295794,0 0.534011,0.238217 0.534011,0.534013 v 1.32132 h 0.629063 v -1.678194 c 0,-0.449771 -0.362049,-0.81182 -0.811819,-0.81182 z"
       sodipodi:nodetypes="ssssccssssssccsss" /><path
       sodipodi:type="star"
       style="fill:#ffffff;fill-opacity:1;stroke-width:0.839999;paint-order:markers stroke fill"
       id="path316"
       inkscape:flatsided="false"
       sodipodi:sides="5"
       sodipodi:cx="43.370537"
       sodipodi:cy="73.262283"
       sodipodi:r1="6.1134734"
       sodipodi:r2="3.0567369"
       sodipodi:arg1="1.0471976"
       sodipodi:arg2="1.6755161"
       inkscape:rounded="0"
       inkscape:randomized="0"
       d="m 46.427273,78.556707 -3.376252,-2.254432 -3.771197,1.503204 1.100773,-3.907664 -2.594996,-3.122106 4.056567,-0.160638 2.167401,-3.432771 1.406324,3.808385 3.934523,1.000536 -3.187411,2.514349 z"
       inkscape:transform-center-x="1.166399"
       transform="matrix(0.68916805,-0.0761057,0.0761057,0.68916805,8.4716104,26.082262)"
       inkscape:transform-center-y="0.0038323482" /></g></svg>
