<?xml version="1.0" encoding="UTF-8" standalone="no"?>
<!-- Created with Inkscape (http://www.inkscape.org/) -->

<svg
   width="210mm"
   height="297mm"
   viewBox="0 0 210 297"
   version="1.1"
   id="svg5"
   inkscape:version="1.2.2 (b0a8486, 2022-12-01)"
   sodipodi:docname="UI.svg"
   xml:space="preserve"
   xmlns:inkscape="http://www.inkscape.org/namespaces/inkscape"
   xmlns:sodipodi="http://sodipodi.sourceforge.net/DTD/sodipodi-0.dtd"
   xmlns="http://www.w3.org/2000/svg"
   xmlns:svg="http://www.w3.org/2000/svg"><sodipodi:namedview
     id="namedview7"
     pagecolor="#434343"
     bordercolor="#000000"
     borderopacity="0.25"
     inkscape:showpageshadow="2"
     inkscape:pageopacity="0"
     inkscape:pagecheckerboard="0"
     inkscape:deskcolor="#d1d1d1"
     inkscape:document-units="mm"
     showgrid="false"
     showguides="true"
     inkscape:zoom="4.4655318"
     inkscape:cx="558.72405"
     inkscape:cy="273.87556"
     inkscape:window-width="1360"
     inkscape:window-height="699"
     inkscape:window-x="0"
     inkscape:window-y="32"
     inkscape:window-maximized="1"
     inkscape:current-layer="layer1"><sodipodi:guide
       position="32.832574,303.88861"
       orientation="1,0"
       id="guide1797"
       inkscape:locked="false" /><sodipodi:guide
       position="108.26046,317.099"
       orientation="1,0"
       id="guide379"
       inkscape:locked="false" /><sodipodi:guide
       position="97.708423,220.11748"
       orientation="0,-1"
       id="guide1217"
       inkscape:locked="false" /><sodipodi:guide
       position="98.778721,226.53927"
       orientation="0,-1"
       id="guide1219"
       inkscape:locked="false" /><sodipodi:guide
       position="99.168685,220.25857"
       orientation="0.70710678,-0.70710678"
       id="guide5296"
       inkscape:locked="false" /><sodipodi:guide
       position="105.23802,220.08894"
       orientation="-0.70710678,-0.70710678"
       id="guide5347"
       inkscape:locked="false" /></sodipodi:namedview><defs
     id="defs2"><inkscape:perspective
       sodipodi:type="inkscape:persp3d"
       inkscape:vp_x="-13.886762 : 141.44463 : 1"
       inkscape:vp_y="342.02013 : -939.69262 : 0"
       inkscape:vp_z="196.11324 : 141.44463 : 1"
       inkscape:persp3d-origin="91.113238 : 91.944625 : 1"
       id="perspective1331" /></defs><g
     inkscape:label="Layer 1"
     inkscape:groupmode="layer"
     id="layer1"><path
       id="circle1799"
       style="fill:#ffffff;fill-opacity:1;stroke:none;stroke-width:0.44465;paint-order:markers stroke fill"
       d="M 17.864026 3.543453 A 9.0126408 9.0126408 0 0 0 8.8516561 12.556856 A 9.0126408 9.0126408 0 0 0 13.755233 20.571871 C 13.723313 20.731802 13.706657 20.897336 13.706657 21.066931 L 13.706657 21.966101 C 13.706657 23.349232 14.820017 24.462073 16.203145 24.462073 L 19.448942 24.462073 C 20.832072 24.462073 21.945431 23.349232 21.945431 21.966101 L 21.945431 21.066931 C 21.945431 20.910124 21.930973 20.756691 21.903573 20.608044 A 9.0126408 9.0126408 0 0 0 26.876912 12.556856 A 9.0126408 9.0126408 0 0 0 17.864026 3.543453 z M 17.71158 7.5752482 A 4.6901011 4.6901011 0 0 1 22.401733 12.265401 A 4.6901011 4.6901011 0 0 1 17.71158 16.955037 A 4.6901011 4.6901011 0 0 1 13.021427 12.265401 A 4.6901011 4.6901011 0 0 1 17.71158 7.5752482 z M 17.864026 25.249622 A 3.5862396 3.5862396 0 0 0 14.277681 28.835449 A 3.5862396 3.5862396 0 0 0 17.864026 32.421794 A 3.5862396 3.5862396 0 0 0 21.45037 28.835449 A 3.5862396 3.5862396 0 0 0 17.864026 25.249622 z " /><path
       style="opacity:1;fill:#ffffff;fill-opacity:1;stroke:none;stroke-width:0.658178;paint-order:markers stroke fill"
       d="m 40.975808,24.036056 7.744963,-6.212387 -9.8652,-4.411944 z"
       id="path5740"
       sodipodi:nodetypes="cccc" /><path
       id="rect5854"
       style="opacity:1;fill:#ffffff;fill-opacity:0.99104;stroke:none;stroke-width:0.837792;stroke-opacity:1;paint-order:markers stroke fill"
       d="m 95.292375,12.41578 c -0.613535,0 -1.226939,0.235269 -1.697054,0.705383 l -3.277495,3.237384 5.159375,5.159375 3.276978,-3.237901 c 0.940233,-0.94023 0.940233,-2.453879 0,-3.394108 l -1.76475,-1.76475 C 96.519314,12.651049 95.905909,12.41578 95.292375,12.41578 Z m -5.886463,4.90461 c -0.815524,0.945008 -0.774883,2.364459 0.122473,3.261816 l 1.764751,1.76475 c 0.897357,0.897357 2.316808,0.937997 3.261816,0.122474 z"
       sodipodi:nodetypes="sccccssscsscc" /><rect
       style="fill:none;fill-opacity:0.992157;stroke:#ffffff;stroke-width:0.78557;stroke-opacity:1;paint-order:markers stroke fill"
       id="rect295"
       width="4.5062189"
       height="4.5062189"
       x="117.49793"
       y="15.945869"
       rx="1.0479589"
       ry="1.047959" /><rect
       style="fill:none;fill-opacity:0.992157;stroke:#f7a1c9;stroke-width:0.774405;stroke-opacity:1;paint-order:markers stroke fill"
       id="rect1161"
       width="4.4421706"
       height="4.4421706"
       x="127.75642"
       y="15.977893"
       rx="1.033064"
       ry="1.033064" /><rect
       style="fill:none;fill-opacity:0.992157;stroke:#f7a1c9;stroke-width:0.812415;stroke-opacity:1;paint-order:markers stroke fill"
       id="rect1163"
       width="3.1213429"
       height="0.76552707"
       x="128.32826"
       y="16.416134"
       rx="0"
       ry="0" /><rect
       style="fill:#f7a1c9;fill-opacity:1;stroke:#f7a1c9;stroke-width:0.51411;stroke-opacity:1;paint-order:markers stroke fill"
       id="rect1165"
       width="0.89947033"
       height="1.0638312"
       x="127.87714"
       y="17.197432"
       rx="0"
       ry="0" /><rect
       style="fill:#f7a1c9;fill-opacity:1;stroke:#f7a1c9;stroke-width:0.501482;stroke-opacity:1;paint-order:markers stroke fill"
       id="rect1167"
       width="0.69295394"
       height="1.3138684"
       x="131.06471"
       y="17.439222"
       rx="0"
       ry="0" /><rect
       style="fill:#ffffff;fill-opacity:1;stroke:none;stroke-width:1.679;stroke-opacity:1;paint-order:markers stroke fill"
       id="rect1129"
       width="11.478985"
       height="3.0237322"
       x="37.11861"
       y="89.398926"
       transform="rotate(-45)"
       rx="1.5118661"
       ry="1.5118661" /><path
       id="rect381"
       style="fill:#ffffff;stroke-width:1.13679;paint-order:markers stroke fill"
       d="m 39.638178,37.222622 -0.583727,0.716286 c -0.361969,0.444222 -0.361969,1.15967 0,1.603892 l 4.065157,4.989197 c 0.36197,0.444223 0.945021,0.444222 1.30699,0 L 48.492143,39.5428 c 0.361969,-0.444221 0.361969,-1.159671 0,-1.603892 l -0.583727,-0.716287 -3.481818,4.272912 c -0.361969,0.444221 -0.945021,0.444222 -1.306989,0 z" /><path
       id="path1689"
       style="fill:#ffffff;stroke-width:1.13868;paint-order:markers stroke fill"
       d="m 64.533796,45.185904 0.71748,0.5847 c 0.444963,0.362572 1.161604,0.362572 1.606566,0 l 4.997513,-4.071933 c 0.444963,-0.362572 0.444963,-0.946596 0,-1.309168 l -4.997513,-4.072322 c -0.444962,-0.362572 -1.161603,-0.362572 -1.606566,0 l -0.71748,0.5847 4.280033,3.487622 c 0.444963,0.362572 0.444963,0.946596 10e-7,1.309168 z" /><path
       id="rect304"
       style="fill:#ffffff;stroke:none;stroke-width:1.34124;paint-order:markers stroke fill"
       d="m 42.944359,58.321052 c -0.111758,0 -0.223528,0.04296 -0.309162,0.128598 -0.17127,0.171269 -0.171269,0.446816 0,0.618085 l 1.236648,1.236648 -1.236649,1.236649 c -0.171269,0.171269 -0.171269,0.447055 0,0.618323 0.171269,0.17127 0.447055,0.17127 0.618324,1e-6 l 1.236649,-1.236649 1.236409,1.236649 c 0.171269,0.171269 0.447055,0.171269 0.618324,-1e-6 0.171269,-0.171268 0.171269,-0.447054 0,-0.618323 l -1.236649,-1.236649 1.236649,-1.236648 c 0.171269,-0.171269 0.171269,-0.446816 0,-0.618085 -0.171269,-0.171269 -0.447055,-0.171269 -0.618324,0 L 44.490169,59.686059 43.25352,58.44965 c -0.08563,-0.08563 -0.197404,-0.128598 -0.309161,-0.128598 z" /><path
       id="path359"
       style="fill:#ffffff;fill-opacity:1;stroke:none;stroke-width:1.08456;stroke-dasharray:none;stroke-opacity:1;paint-order:markers stroke fill"
       d="m 57.811246,58.016777 c -1.572242,1.12e-4 -3.04981,1.835114 -3.049841,2.557403 3.1e-5,0.704193 1.4776,2.539193 3.049841,2.539306 1.57248,2.08e-4 3.050452,-1.779151 3.050452,-2.539306 -5.8e-5,-0.722516 -1.477972,-2.557611 -3.050452,-2.557403 z m 6.13e-4,0.732316 c 1.46093,8e-6 2.091476,1.238378 2.091443,1.796673 0,0.488498 -0.630515,1.79666 -2.091443,1.796668 -1.460928,-8e-6 -2.165303,-1.252379 -2.165272,-1.796668 0.02506,-0.5023 0.704343,-1.796665 2.165272,-1.796673 z"
       sodipodi:nodetypes="cccccscscs" /><ellipse
       style="fill:#fafafa;fill-opacity:1;stroke:none;stroke-width:1.13784;stroke-dasharray:none;stroke-opacity:1;paint-order:markers stroke fill"
       id="path1071"
       cx="57.771072"
       cy="60.492672"
       rx="1.6090199"
       ry="1.5558033" /><path
       style="fill:#c0c0c0;fill-opacity:1;stroke:none;stroke-width:1.43867;stroke-dasharray:none;stroke-opacity:1;paint-order:markers stroke fill"
       d="m 66.098699,60.583395 c 1.021894,0 2.237431,0.793073 3.392561,0.783578 1.17974,-0.0098 2.179821,-0.785207 3.4525,-0.779213 0.107901,5.09e-4 0.09345,0.359637 0,0.413582 -1.061553,0.612887 -2.25521,0.964295 -3.464491,0.988999 -1.145455,0.02339 -2.209666,-0.245683 -3.320632,-0.8871 -0.129206,-0.0746 -0.209133,-0.519846 -0.05995,-0.519846 z"
       id="path4992"
       sodipodi:nodetypes="ssssssss" /><ellipse
       style="fill:#c0c0c0;stroke-width:0.760889;paint-order:markers stroke fill;fill-opacity:1"
       id="path389"
       cx="66.876221"
       cy="61.388466"
       rx="0.41845238"
       ry="0.58963746" /><ellipse
       style="fill:#c0c0c0;stroke-width:0.760889;paint-order:markers stroke fill;fill-opacity:1"
       id="ellipse391"
       cx="72.174438"
       cy="61.33992"
       rx="0.41845238"
       ry="0.58963746" /><ellipse
       style="fill:#c0c0c0;stroke-width:0.760889;paint-order:markers stroke fill;fill-opacity:1"
       id="ellipse393"
       cx="68.550102"
       cy="61.880264"
       rx="0.41845238"
       ry="0.58963746" /><ellipse
       style="fill:#c0c0c0;stroke-width:0.760889;paint-order:markers stroke fill;fill-opacity:1"
       id="ellipse397"
       cx="70.490196"
       cy="61.899284"
       rx="0.41845238"
       ry="0.58963746" /><path
       id="path515"
       style="fill:#fafafa;stroke-width:0.839999;paint-order:markers stroke fill"
       d="M 72.380595 13.448792 L 71.801302 14.031185 L 73.95776 16.2295 L 74.55824 15.626436 C 74.070873 14.515218 73.353222 13.776125 72.380595 13.448792 z M 70.739868 15.098303 L 64.69941 21.169767 L 63.828145 24.218677 L 66.79799 23.426477 L 72.896842 17.296619 L 70.739868 15.098303 z " /><rect
       style="fill:#fafafa;stroke-width:0.611769;paint-order:markers stroke fill"
       id="rect793"
       width="3.9594412"
       height="3.0831769"
       x="78.459991"
       y="59.557175"
       rx="0.79594302"
       ry="0.79594302" /><path
       id="rect795"
       style="fill:#fafafa;stroke-width:0.688523;paint-order:markers stroke fill"
       d="m 79.272146,57.875851 c -0.440952,0 -0.795901,0.35495 -0.795901,0.795902 v 1.474895 c 0,0.440952 0.354949,0.796325 0.795901,0.796325 h 1.39484 v -0.427812 h -1.050472 c -0.289994,0 -0.523541,-0.233546 -0.523541,-0.523542 v -0.969991 c 0,-0.289996 0.233547,-0.523542 0.523541,-0.523542 h 1.64653 c 0.289994,0 0.52354,0.233546 0.52354,0.523542 v 0.03897 h 0.616729 v -0.388843 c 0,-0.440953 -0.35495,-0.795902 -0.795902,-0.795902 z"
       sodipodi:nodetypes="ssssccssssssccsss" /><rect
       style="fill:#fafafa;stroke-width:0.624005;paint-order:markers stroke fill"
       id="rect803"
       width="4.0386291"
       height="3.1448395"
       x="86.115593"
       y="59.543156"
       rx="0.81186169"
       ry="0.81186169" /><path
       id="path805"
       style="fill:#fafafa;stroke-width:0.702294;paint-order:markers stroke fill"
       d="m 86.943994,57.828207 c -0.449771,0 -0.811819,0.362049 -0.811819,0.81182 v 1.504392 c 0,0.449771 0.362048,0.812252 0.811819,0.812252 h 1.422736 v -0.436369 h -1.071481 c -0.295794,0 -0.534012,-0.238217 -0.534012,-0.534013 v -0.98939 c 0,-0.295796 0.238218,-0.534013 0.534012,-0.534013 h 1.67946 c 0.295794,0 0.534011,0.238217 0.534011,0.534013 v 1.32132 h 0.629063 v -1.678194 c 0,-0.449771 -0.362049,-0.81182 -0.811819,-0.81182 z"
       sodipodi:nodetypes="ssssccssssssccsss" /><path
       sodipodi:type="star"
       style="fill:#ffffff;fill-opacity:1;stroke-width:0.839999;paint-order:markers stroke fill"
       id="path316"
       inkscape:flatsided="false"
       sodipodi:sides="5"
       sodipodi:cx="43.370537"
       sodipodi:cy="73.262283"
       sodipodi:r1="6.1134734"
       sodipodi:r2="3.0567369"
       sodipodi:arg1="1.0471976"
       sodipodi:arg2="1.6755161"
       inkscape:rounded="0"
       inkscape:randomized="0"
       d="m 46.427273,78.556707 -3.376252,-2.254432 -3.771197,1.503204 1.100773,-3.907664 -2.594996,-3.122106 4.056567,-0.160638 2.167401,-3.432771 1.406324,3.808385 3.934523,1.000536 -3.187411,2.514349 z"
       inkscape:transform-center-x="1.166399"
       transform="matrix(0.68916805,-0.0761057,0.0761057,0.68916805,8.4716104,26.082262)"
       inkscape:transform-center-y="0.0038323482" /><path
       style="fill:none;stroke:#fafafa;stroke-width:0.64;stroke-dasharray:none;stroke-opacity:1;paint-order:markers stroke fill;stroke-linejoin:round;stroke-linecap:round"
       d="m 59.278737,77.457214 -2.534209,-2.61279 -0.569706,-3.143206 3.575395,-1.669829 3.182498,1.925214 -0.589352,3.261075 z"
       id="path3192" /><path
       style="fill:none;stroke:#fafafa;stroke-width:0.64;stroke-dasharray:none;stroke-opacity:1;paint-order:markers stroke fill;stroke-linejoin:round;stroke-linecap:round"
       d="m 56.273047,71.720863 3.044981,2.632435 3.55575,-2.337759"
       id="path3194" /><path
       style="fill:none;stroke:#fafafa;stroke-width:0.64;stroke-dasharray:none;stroke-opacity:1;paint-order:markers stroke fill;stroke-linejoin:round;stroke-linecap:round"
       d="m 59.305006,77.398782 -0.0017,-3.065633"
       id="path3196" /><path
       style="fill:none;stroke:#fafafa;stroke-width:0.74;stroke-dasharray:none;stroke-opacity:1;paint-order:markers stroke fill;stroke-linejoin:round;stroke-linecap:round"
       d="m 71.93362,77.457214 -2.534209,-2.61279 -0.569706,-3.143206 3.575395,-1.669829 3.182498,1.925214 -0.589352,3.261075 z"
       id="path4690" /><path
       style="fill:none;stroke:#fafafa;stroke-width:0.388399;stroke-dasharray:none;stroke-opacity:1;paint-order:markers stroke fill;stroke-linejoin:round;stroke-linecap:round"
       d="m 72.062983,75.70965 -1.330115,-1.37136 -0.299018,-1.649755 1.876596,-0.876434 1.670378,1.010476 -0.309329,1.711621 z"
       id="path4698" /><path
       id="path5468"
       style="fill:none;fill-opacity:1;stroke:#fafafa;stroke-width:1.145;paint-order:markers stroke fill;stroke-opacity:1;stroke-dasharray:none"
       d="m 17.864026,41.396096 c -4.977736,1.5e-4 -9.0127909,4.035667 -9.0123699,9.013403 0.0024,3.379762 1.8955209,6.474106 4.9035769,8.015015 -0.03192,0.159931 -0.04858,0.325465 -0.04858,0.49506 v 0.89917 c 0,1.383131 1.11336,2.495972 2.496488,2.495972 h 3.245797 c 1.38313,0 2.496489,-1.112841 2.496489,-2.495972 v -0.89917 c 0,-0.156807 -0.01446,-0.31024 -0.04186,-0.458887 3.046741,-1.527496 4.971223,-4.642982 4.973339,-8.051188 4.21e-4,-4.977937 -4.034949,-9.013538 -9.012886,-9.013403 z m -0.152446,4.031795 c 2.590312,-2.9e-5 4.690182,2.099841 4.690153,4.690153 -2.57e-4,2.59011 -2.100043,4.689665 -4.690153,4.689636 -2.59011,2.9e-5 -4.689896,-2.099526 -4.690153,-4.689636 -2.9e-5,-2.590312 2.099841,-4.690182 4.690153,-4.690153 z"
       sodipodi:nodetypes="sccssssssccssccccc" /><path
       d="m 17.673722,63.029325 c -1.980505,-5.8e-5 -3.586116,1.60532 -3.586345,3.585825 -6.1e-5,1.98071 1.605635,3.586408 3.586345,3.58635 1.980709,5.8e-5 3.586404,-1.605641 3.586344,-3.58635 -2.29e-4,-1.980504 -1.60584,-3.585883 -3.586344,-3.585825 z"
       style="fill:none;fill-opacity:1;stroke:#fafafa;stroke-width:1.145;paint-order:markers stroke fill;stroke-opacity:1;stroke-dasharray:none"
       id="path5516" /><path
       d="m 17.713318,45.302936 c -2.629924,-7.8e-5 -4.762024,2.131714 -4.762327,4.761637 -8.2e-5,2.630195 2.132131,4.762412 4.762327,4.762334 2.630195,7.8e-5 4.762406,-2.13214 4.762326,-4.762334 -3.03e-4,-2.629922 -2.132403,-4.761715 -4.762326,-4.761637 z"
       style="fill:#ffffff;fill-opacity:1;stroke:none;stroke-width:0.590453;paint-order:markers stroke fill"
       id="path5536" /><rect
       style="fill:none;stroke:#fafafa;stroke-width:0.34499999;stroke-dasharray:none;stroke-opacity:1;paint-order:markers stroke fill;stroke-linejoin:round;stroke-linecap:round"
       id="rect8636"
       width="5.991188"
       height="5.991188"
       x="79.181679"
       y="70.639465"
       rx="0"
       ry="0" /><rect
       style="fill:none;stroke:#fafafa;stroke-width:0.379046;stroke-dasharray:none;stroke-opacity:1;paint-order:markers stroke fill;stroke-linejoin:round;stroke-linecap:round"
       id="rect8638"
       width="3.3587792"
       height="5.9184222"
       x="80.534286"
       y="70.681358" /><rect
       style="fill:none;stroke:#fafafa;stroke-width:0.396355;stroke-dasharray:none;stroke-opacity:1;paint-order:markers stroke fill;stroke-linejoin:round;stroke-linecap:round"
       id="rect8640"
       width="0.018640172"
       height="5.842124"
       x="82.20945"
       y="70.707047" /><rect
       style="fill:none;stroke:#fafafa;stroke-width:0.379046;stroke-dasharray:none;stroke-opacity:1;paint-order:markers stroke fill;stroke-linejoin:round;stroke-linecap:round"
       id="rect8644"
       width="3.3587792"
       height="5.9184222"
       x="-75.278046"
       y="79.223572"
       transform="rotate(-90)" /><rect
       style="fill:none;stroke:#fafafa;stroke-width:0.396355;stroke-dasharray:none;stroke-opacity:1;paint-order:markers stroke fill;stroke-linejoin:round;stroke-linecap:round"
       id="rect8646"
       width="0.018640172"
       height="5.842124"
       x="-73.602882"
       y="79.24926"
       transform="rotate(-90)" /><path
       style="fill:none;stroke:#fafafa;stroke-width:0.508321;paint-order:markers stroke fill"
       d="m 91.698565,71.205921 v 2.778548 l -2.343105,2.343107 2.353475,-2.353476 2.301633,2.301637"
       id="path489"
       sodipodi:nodetypes="ccccc" /><circle
       style="fill:#ffffff;fill-opacity:1;stroke:#fafafa;stroke-width:0.508321;paint-order:markers stroke fill"
       id="path543"
       cx="89.313995"
       cy="76.28611"
       r="0.72573954" /><circle
       style="fill:#ffffff;fill-opacity:1;stroke:#fafafa;stroke-width:0.508321;paint-order:markers stroke fill"
       id="circle545"
       cx="94.062408"
       cy="76.28611"
       r="0.72573954" /><circle
       style="fill:#ffffff;fill-opacity:1;stroke:#fafafa;stroke-width:0.508321;paint-order:markers stroke fill"
       id="circle547"
       cx="91.719315"
       cy="71.102249"
       r="0.72573954" /><path
       style="fill:none;stroke:#fafafa;stroke-width:0.58938;paint-order:markers stroke fill"
       d="m 102.10737,70.667303 v 3.142713 l -2.606903,2.637481 2.619213,-2.649209 2.62123,2.717771"
       id="path1103"
       sodipodi:nodetypes="ccccc" /><path
       sodipodi:type="star"
       style="fill:#ffffff;fill-opacity:1;stroke:none;stroke-width:0.397143;stroke-linejoin:round;stroke-dasharray:none;paint-order:markers stroke fill"
       id="path1211"
       inkscape:flatsided="true"
       sodipodi:sides="3"
       sodipodi:cx="98.612457"
       sodipodi:cy="71.594872"
       sodipodi:r1="0.82879424"
       sodipodi:r2="0.41439718"
       sodipodi:arg1="1.0471976"
       sodipodi:arg2="2.0943952"
       inkscape:rounded="0"
       inkscape:randomized="0"
       d="m 99.026854,72.312628 -1.243191,-0.717757 1.243191,-0.717756 z"
       inkscape:transform-center-x="-0.21224025"
       inkscape:transform-center-y="-0.42879295"
       transform="matrix(1.0443427,-0.57898922,0.60295152,1.0028388,-44.038474,55.983272)" /><path
       sodipodi:type="star"
       style="fill:#ffffff;fill-opacity:1;stroke:none;stroke-width:0.397143;stroke-linejoin:round;stroke-dasharray:none;paint-order:markers stroke fill"
       id="path1215"
       inkscape:flatsided="true"
       sodipodi:sides="3"
       sodipodi:cx="98.612457"
       sodipodi:cy="71.594872"
       sodipodi:r1="0.82879424"
       sodipodi:r2="0.41439718"
       sodipodi:arg1="1.0471976"
       sodipodi:arg2="2.0943952"
       inkscape:rounded="0"
       inkscape:randomized="0"
       d="m 99.026854,72.312628 -1.243191,-0.717757 1.243191,-0.717756 z"
       inkscape:transform-center-x="0.14032429"
       inkscape:transform-center-y="0.15345992"
       transform="matrix(-0.31211067,1.1185212,-1.1648128,-0.29970686,219.03842,-12.212223)" /><g
       sodipodi:type="inkscape:box3d"
       id="g3709"
       style="fill:#ffffff;fill-opacity:1;stroke:#fafafa;stroke-width:1.50253;paint-order:markers stroke fill"
       inkscape:perspectiveID="#perspective1331"
       inkscape:corner0="-0.16509661 : 0.12018039 : 0 : 1"
       inkscape:corner7="-0.18526744 : 0.11472052 : 0.25 : 1"><path
         sodipodi:type="inkscape:box3dside"
         id="path3715"
         style="fill:#8686bf;fill-rule:evenodd;stroke:none;stroke-linejoin:round"
         inkscape:box3dsidetype="3"
         d="m 161.10847,350.10797 4.33247,4.81666 -2.29203,-6.29728 -4.27708,-4.66452 z"
         points="165.44094,354.92463 163.14891,348.62735 158.87183,343.96283 161.10847,350.10797 " /><path
         sodipodi:type="inkscape:box3dside"
         id="path3717"
         style="fill:#d7d7ff;fill-rule:evenodd;stroke:none;stroke-linejoin:round"
         inkscape:box3dsidetype="14"
         d="m 165.44094,354.92463 -2.29203,-6.29728 7.74005,-45.33344 1.75386,4.81867 z"
         points="163.14891,348.62735 170.88896,303.29391 172.64282,308.11258 165.44094,354.92463 " /><path
         sodipodi:type="inkscape:box3dside"
         id="path3719"
         style="fill:#afafde;fill-rule:evenodd;stroke:none;stroke-linejoin:round"
         inkscape:box3dsidetype="13"
         d="m 158.87183,343.96283 4.27708,4.66452 7.74005,-45.33344 -3.4354,-2.7468 z"
         points="163.14891,348.62735 170.88896,303.29391 167.45356,300.54711 158.87183,343.96283 " /><path
         sodipodi:type="inkscape:box3dside"
         id="path3713"
         style="fill:#4d4d9f;fill-rule:evenodd;stroke:none;stroke-linejoin:round"
         inkscape:box3dsidetype="5"
         d="m 161.10847,350.10797 4.33247,4.81666 7.20188,-46.81205 -3.46801,-2.83639 z"
         points="165.44094,354.92463 172.64282,308.11258 169.17481,305.27619 161.10847,350.10797 " /><path
         sodipodi:type="inkscape:box3dside"
         id="path3711"
         style="fill:#353564;fill-rule:evenodd;stroke:none;stroke-linejoin:round"
         inkscape:box3dsidetype="6"
         d="m 161.10847,350.10797 -2.23664,-6.14514 8.58173,-43.41572 1.72125,4.72908 z"
         points="158.87183,343.96283 167.45356,300.54711 169.17481,305.27619 161.10847,350.10797 " /><path
         sodipodi:type="inkscape:box3dside"
         id="path3721"
         style="fill:#e9e9ff;fill-rule:evenodd;stroke:none;stroke-linejoin:round"
         inkscape:box3dsidetype="11"
         d="m 169.17481,305.27619 3.46801,2.83639 -1.75386,-4.81867 -3.4354,-2.7468 z"
         points="172.64282,308.11258 170.88896,303.29391 167.45356,300.54711 169.17481,305.27619 " /></g><path
       style="fill:#ffffff;fill-opacity:1;stroke:#fafafa;stroke-width:0.388005;stroke-linejoin:round;stroke-dasharray:none;stroke-opacity:1;paint-order:markers stroke fill"
       d="m 110.83932,76.002992 -1.32809,-1.369284 -0.29859,-1.64726 1.87377,-0.875105 1.66785,1.008944 -0.30887,1.709031 z"
       id="path3777" /><path
       sodipodi:type="star"
       style="fill:#ffffff;fill-opacity:1;stroke:none;stroke-width:0.397143;stroke-linejoin:round;stroke-dasharray:none;paint-order:markers stroke fill"
       id="path5349"
       inkscape:flatsided="true"
       sodipodi:sides="3"
       sodipodi:cx="98.612457"
       sodipodi:cy="71.594872"
       sodipodi:r1="0.82879424"
       sodipodi:r2="0.41439718"
       sodipodi:arg1="1.0471976"
       sodipodi:arg2="2.0943952"
       inkscape:rounded="0"
       inkscape:randomized="0"
       d="m 99.026854,72.312628 -1.243191,-0.717757 1.243191,-0.717756 z"
       inkscape:transform-center-x="-0.14032742"
       inkscape:transform-center-y="0.15345992"
       transform="matrix(0.31211067,1.1185212,1.1648128,-0.29970686,-14.877038,-12.212223)" /><path
       id="path1115"
       style="fill:#ffffff;fill-opacity:1;stroke:#fafafa;stroke-width:0.455937;stroke-linecap:square;stroke-linejoin:miter;stroke-dasharray:none;stroke-opacity:1;paint-order:markers stroke fill"
       inkscape:transform-center-x="0.068449932"
       inkscape:transform-center-y="0.77816011"
       d="m 111.0495,69.903659 -0.75912,1.331109 -0.33771,0.593793 1.16647,-0.544546 1.14468,0.692992 -0.43903,-0.751386 z" /><path
       id="path1117"
       style="fill:#ffffff;fill-opacity:1;stroke:#fafafa;stroke-width:0.455936;stroke-linecap:square;stroke-linejoin:miter;stroke-dasharray:none;stroke-opacity:1;paint-order:markers stroke fill"
       inkscape:transform-center-x="-0.068453533"
       inkscape:transform-center-y="-0.77815747"
       d="m 112.01265,76.08278 -1.21924,0.890689 -0.57409,-0.591682 0.0478,0.0816 0.7753,1.322665 0.75842,-1.331813 z" /><path
       style="fill:#ffffff;fill-opacity:1;stroke:#fafafa;stroke-width:0.620881;stroke-linejoin:round;stroke-dasharray:none;stroke-opacity:1;paint-order:markers stroke fill"
       d="m 119.6373,76.80391 -2.1252,-2.191111 -0.47779,-2.635922 2.99838,-1.400332 2.66886,1.614499 -0.49424,2.734768 z"
       id="path350" /><path
       id="path592"
       style="fill:#ffffff;stroke:none;stroke-width:0.442085;stroke-linecap:square;paint-order:markers stroke fill"
       d="m 128.85606,70.506001 a 1.7484686,2.1742105 0 0 0 -1.74886,2.174035 1.7484686,2.1742105 0 0 0 1.17541,2.052877 1.3307495,1.6715874 0 0 0 -0.05,0.450161 1.3307495,1.6715874 0 0 0 1.33089,1.671652 1.3307495,1.6715874 0 0 0 0.78784,-0.324304 c -0.0522,-0.110183 -0.0819,-0.234825 -0.0819,-0.367126 v -4.676552 c 0,-0.02691 9.3e-4,-0.05367 0.004,-0.0799 A 1.7484686,2.1742105 0 0 0 128.8567,70.506 Z" /><path
       id="rect648"
       style="fill:#ffffff;stroke:none;stroke-width:0.210951;stroke-linecap:square;paint-order:markers stroke fill"
       d="m 130.90894,70.947806 c -0.28127,0.09911 -0.4832,0.379848 -0.4832,0.713364 v 4.327702 c 0,0.333536 0.2019,0.614784 0.4832,0.713886 z"
       sodipodi:nodetypes="csscc" /><path
       id="path1264"
       style="fill:#8e8e8e;fill-opacity:1;stroke:none;stroke-width:0.442085;stroke-linecap:square;paint-order:markers stroke fill"
       d="m 133.25247,70.506001 a 1.7484686,2.1742105 0 0 1 1.74886,2.174035 1.7484686,2.1742105 0 0 1 -1.17541,2.052877 1.3307495,1.6715874 0 0 1 0.05,0.450161 1.3307495,1.6715874 0 0 1 -1.33089,1.671652 1.3307495,1.6715874 0 0 1 -0.78784,-0.324304 c 0.0522,-0.110183 0.0821,-0.234825 0.0821,-0.367126 v -4.676552 c 0,-0.02691 -9.4e-4,-0.05367 -0.004,-0.0799 A 1.7484686,2.1742105 0 0 1 133.25203,70.506 Z" /><path
       d="m 131.19821,70.965025 v 5.74503 c 0.2741,-0.103319 0.46946,-0.380592 0.46946,-0.708664 v -4.327703 c 0,-0.328084 -0.19533,-0.60535 -0.46946,-0.708663 z"
       style="fill:#8e8e8e;fill-opacity:1;stroke:none;stroke-width:0.210951;stroke-linecap:square;paint-order:markers stroke fill"
       id="path1338" /><ellipse
       style="fill:none;fill-opacity:1;stroke:#fafafa;stroke-width:0.357205;stroke-linecap:square;stroke-dasharray:none;stroke-dashoffset:0;stroke-opacity:1;paint-order:markers stroke fill"
       id="path1808"
       cx="141.88045"
       cy="73.736992"
       rx="2.5673246"
       ry="1.020025" /><ellipse
       style="fill:none;fill-opacity:1;stroke:#fafafa;stroke-width:0.268148;stroke-linecap:square;stroke-dasharray:none;stroke-dashoffset:0;stroke-opacity:1;paint-order:markers stroke fill"
       id="ellipse1914"
       cx="-73.736992"
       cy="141.88045"
       rx="2.5287216"
       ry="2.5924299"
       transform="rotate(-90)" /><ellipse
       style="fill:none;fill-opacity:1;stroke:#fafafa;stroke-width:0.294572;stroke-linecap:square;stroke-dasharray:none;stroke-dashoffset:0;stroke-opacity:1;paint-order:markers stroke fill"
       id="ellipse1916"
       cx="-73.736992"
       cy="141.88045"
       rx="2.4366086"
       ry="1.1717184"
       transform="rotate(-90)" /><ellipse
       style="fill:none;fill-opacity:1;stroke:#fafafa;stroke-width:0.556107;stroke-linecap:square;stroke-dasharray:none;stroke-dashoffset:0;stroke-opacity:1;paint-order:markers stroke fill"
       id="path1918"
       cx="139.30933"
       cy="73.727379"
       rx="0.2740519"
       ry="0.28736085" /><ellipse
       style="fill:none;fill-opacity:1;stroke:#fafafa;stroke-width:0.556107;stroke-linecap:square;stroke-dasharray:none;stroke-dashoffset:0;stroke-opacity:1;paint-order:markers stroke fill"
       id="circle1920"
       cx="144.43816"
       cy="73.727379"
       rx="0.2740519"
       ry="0.28736085" /><ellipse
       style="fill:none;fill-opacity:1;stroke:#fafafa;stroke-width:0.556107;stroke-linecap:square;stroke-dasharray:none;stroke-dashoffset:0;stroke-opacity:1;paint-order:markers stroke fill"
       id="circle1924"
       cx="-76.301414"
       cy="141.81894"
       transform="rotate(-90)"
       rx="0.28736085"
       ry="0.2740519" /><ellipse
       style="fill:none;fill-opacity:1;stroke:#fafafa;stroke-width:0.556107;stroke-linecap:square;stroke-dasharray:none;stroke-dashoffset:0;stroke-opacity:1;paint-order:markers stroke fill"
       id="circle1926"
       cx="-71.153343"
       cy="141.81894"
       transform="rotate(-90)"
       rx="0.28736085"
       ry="0.2740519" /><path
       id="path3464"
       style="fill:#ffffff;fill-opacity:1;stroke:#ffffff;stroke-width:0.47;stroke-linejoin:round;stroke-dasharray:none;stroke-opacity:1;paint-order:markers stroke fill"
       d="m 151.95983,70.330056 -3.23564,1.511302 0.51585,2.844707 2.29316,2.364547 2.77389,-2.027153 0.53314,-2.951223 -0.19575,-0.118227 -2.92612,2.940627 -1.43435,0.382566 0.42049,-1.472824 2.63,-2.642827 z" /></g></svg>
