<?xml version="1.0" encoding="UTF-8" standalone="no"?>
<!-- Created with Inkscape (http://www.inkscape.org/) -->

<svg
   width="210mm"
   height="297mm"
   viewBox="0 0 210 297"
   version="1.1"
   id="svg5"
   inkscape:version="1.2.2 (b0a8486, 2022-12-01)"
   sodipodi:docname="UI.svg"
   xml:space="preserve"
   xmlns:inkscape="http://www.inkscape.org/namespaces/inkscape"
   xmlns:sodipodi="http://sodipodi.sourceforge.net/DTD/sodipodi-0.dtd"
   xmlns="http://www.w3.org/2000/svg"
   xmlns:svg="http://www.w3.org/2000/svg"><sodipodi:namedview
     id="namedview7"
     pagecolor="#434343"
     bordercolor="#000000"
     borderopacity="0.25"
     inkscape:showpageshadow="2"
     inkscape:pageopacity="0"
     inkscape:pagecheckerboard="0"
     inkscape:deskcolor="#d1d1d1"
     inkscape:document-units="mm"
     showgrid="false"
     showguides="true"
     inkscape:zoom="2.0000001"
     inkscape:cx="11.5"
     inkscape:cy="374.99999"
     inkscape:window-width="1360"
     inkscape:window-height="699"
     inkscape:window-x="0"
     inkscape:window-y="32"
     inkscape:window-maximized="1"
     inkscape:current-layer="layer1"><sodipodi:guide
       position="32.832574,303.88861"
       orientation="1,0"
       id="guide1797"
       inkscape:locked="false" /><sodipodi:guide
       position="108.26046,317.099"
       orientation="1,0"
       id="guide379"
       inkscape:locked="false" /><sodipodi:guide
       position="97.708423,220.11748"
       orientation="0,-1"
       id="guide1217"
       inkscape:locked="false" /><sodipodi:guide
       position="98.778721,226.53927"
       orientation="0,-1"
       id="guide1219"
       inkscape:locked="false" /><sodipodi:guide
       position="99.168685,220.25857"
       orientation="0.70710678,-0.70710678"
       id="guide5296"
       inkscape:locked="false" /><sodipodi:guide
       position="105.23802,220.08894"
       orientation="-0.70710678,-0.70710678"
       id="guide5347"
       inkscape:locked="false" /></sodipodi:namedview><defs
     id="defs2"><inkscape:perspective
       sodipodi:type="inkscape:persp3d"
       inkscape:vp_x="-13.886762 : 141.44463 : 1"
       inkscape:vp_y="342.02013 : -939.69262 : 0"
       inkscape:vp_z="196.11324 : 141.44463 : 1"
       inkscape:persp3d-origin="91.113238 : 91.944625 : 1"
       id="perspective1331" /></defs><g
     inkscape:label="Layer 1"
     inkscape:groupmode="layer"
     id="layer1"><path
       id="circle1799"
       style="fill:#ffffff;fill-opacity:1;stroke:none;stroke-width:0.393446;paint-order:markers stroke fill"
       d="m 17.864056,5.2062134 a 7.9747791,7.9747791 0 0 0 -7.9745397,7.9754536 7.9747791,7.9747791 0 0 0 4.3388997,7.092036 c -0.02824,0.141514 -0.04298,0.287986 -0.04298,0.438051 v 0.795625 c 0,1.223855 0.985149,2.208545 2.209002,2.208545 h 2.872023 c 1.223854,0 2.209003,-0.98469 2.209003,-2.208545 v -0.795625 c 0,-0.13875 -0.01279,-0.274514 -0.03704,-0.406044 a 7.9747791,7.9747791 0 0 0 4.400628,-7.124043 7.9747791,7.9747791 0 0 0 -7.974996,-7.9754536 z m -0.134891,3.5675089 a 4.1500067,4.1500067 0 0 1 4.150052,4.1500527 4.1500067,4.1500067 0 0 1 -4.150052,4.149595 4.1500067,4.1500067 0 0 1 -4.150053,-4.149595 4.1500067,4.1500067 0 0 1 4.150053,-4.1500527 z m 0.134891,15.6390597 a 3.1732618,3.1732618 0 0 0 -3.173355,3.172897 3.1732618,3.1732618 0 0 0 3.173355,3.173355 3.1732618,3.1732618 0 0 0 3.173354,-3.173355 3.1732618,3.1732618 0 0 0 -3.173354,-3.172897 z" /><path
       style="opacity:1;fill:#ffffff;fill-opacity:1;stroke:none;stroke-width:0.658178;paint-order:markers stroke fill"
       d="m 40.975808,24.036056 7.744963,-6.212387 -9.8652,-4.411944 z"
       id="path5740"
       sodipodi:nodetypes="cccc" /><path
       id="rect5854"
       style="opacity:1;fill:#ffffff;fill-opacity:0.99104;stroke:none;stroke-width:0.837792;stroke-opacity:1;paint-order:markers stroke fill"
       d="m 95.292375,12.41578 c -0.613535,0 -1.226939,0.235269 -1.697054,0.705383 l -3.277495,3.237384 5.159375,5.159375 3.276978,-3.237901 c 0.940233,-0.94023 0.940233,-2.453879 0,-3.394108 l -1.76475,-1.76475 C 96.519314,12.651049 95.905909,12.41578 95.292375,12.41578 Z m -5.886463,4.90461 c -0.815524,0.945008 -0.774883,2.364459 0.122473,3.261816 l 1.764751,1.76475 c 0.897357,0.897357 2.316808,0.937997 3.261816,0.122474 z"
       sodipodi:nodetypes="sccccssscsscc" /><rect
       style="fill:none;fill-opacity:0.992157;stroke:#ffffff;stroke-width:0.78557;stroke-opacity:1;paint-order:markers stroke fill"
       id="rect295"
       width="4.5062189"
       height="4.5062189"
       x="117.49793"
       y="15.945869"
       rx="1.0479589"
       ry="1.047959" /><rect
       style="fill:none;fill-opacity:0.992157;stroke:#f7a1c9;stroke-width:0.774405;stroke-opacity:1;paint-order:markers stroke fill"
       id="rect1161"
       width="4.4421706"
       height="4.4421706"
       x="127.75642"
       y="15.977893"
       rx="1.033064"
       ry="1.033064" /><rect
       style="fill:none;fill-opacity:0.992157;stroke:#f7a1c9;stroke-width:0.812415;stroke-opacity:1;paint-order:markers stroke fill"
       id="rect1163"
       width="3.1213429"
       height="0.76552707"
       x="128.32826"
       y="16.416134"
       rx="0"
       ry="0" /><rect
       style="fill:#f7a1c9;fill-opacity:1;stroke:#f7a1c9;stroke-width:0.51411;stroke-opacity:1;paint-order:markers stroke fill"
       id="rect1165"
       width="0.89947033"
       height="1.0638312"
       x="127.87714"
       y="17.197432"
       rx="0"
       ry="0" /><rect
       style="fill:#f7a1c9;fill-opacity:1;stroke:#f7a1c9;stroke-width:0.501482;stroke-opacity:1;paint-order:markers stroke fill"
       id="rect1167"
       width="0.69295394"
       height="1.3138684"
       x="131.06471"
       y="17.439222"
       rx="0"
       ry="0" /><rect
       style="fill:#ffffff;fill-opacity:1;stroke:none;stroke-width:1.679;stroke-opacity:1;paint-order:markers stroke fill"
       id="rect1129"
       width="11.478985"
       height="3.0237322"
       x="37.11861"
       y="89.398926"
       transform="rotate(-45)"
       rx="1.5118661"
       ry="1.5118661" /><path
       id="rect381"
       style="fill:#ffffff;stroke-width:1.13679;paint-order:markers stroke fill"
       d="m 39.638178,37.222622 -0.583727,0.716286 c -0.361969,0.444222 -0.361969,1.15967 0,1.603892 l 4.065157,4.989197 c 0.36197,0.444223 0.945021,0.444222 1.30699,0 L 48.492143,39.5428 c 0.361969,-0.444221 0.361969,-1.159671 0,-1.603892 l -0.583727,-0.716287 -3.481818,4.272912 c -0.361969,0.444221 -0.945021,0.444222 -1.306989,0 z" /><path
       id="path1689"
       style="fill:#ffffff;stroke-width:1.13868;paint-order:markers stroke fill"
       d="m 64.533796,45.185904 0.71748,0.5847 c 0.444963,0.362572 1.161604,0.362572 1.606566,0 l 4.997513,-4.071933 c 0.444963,-0.362572 0.444963,-0.946596 0,-1.309168 l -4.997513,-4.072322 c -0.444962,-0.362572 -1.161603,-0.362572 -1.606566,0 l -0.71748,0.5847 4.280033,3.487622 c 0.444963,0.362572 0.444963,0.946596 10e-7,1.309168 z" /><path
       id="rect304"
       style="fill:#ffffff;stroke:none;stroke-width:1.34124;paint-order:markers stroke fill"
       d="m 42.944359,58.321052 c -0.111758,0 -0.223528,0.04296 -0.309162,0.128598 -0.17127,0.171269 -0.171269,0.446816 0,0.618085 l 1.236648,1.236648 -1.236649,1.236649 c -0.171269,0.171269 -0.171269,0.447055 0,0.618323 0.171269,0.17127 0.447055,0.17127 0.618324,1e-6 l 1.236649,-1.236649 1.236409,1.236649 c 0.171269,0.171269 0.447055,0.171269 0.618324,-1e-6 0.171269,-0.171268 0.171269,-0.447054 0,-0.618323 l -1.236649,-1.236649 1.236649,-1.236648 c 0.171269,-0.171269 0.171269,-0.446816 0,-0.618085 -0.171269,-0.171269 -0.447055,-0.171269 -0.618324,0 L 44.490169,59.686059 43.25352,58.44965 c -0.08563,-0.08563 -0.197404,-0.128598 -0.309161,-0.128598 z" /><path
       id="path359"
       style="fill:#ffffff;fill-opacity:1;stroke:none;stroke-width:1.08456;stroke-dasharray:none;stroke-opacity:1;paint-order:markers stroke fill"
       d="m 57.811246,58.016777 c -1.572242,1.12e-4 -3.04981,1.835114 -3.049841,2.557403 3.1e-5,0.704193 1.4776,2.539193 3.049841,2.539306 1.57248,2.08e-4 3.050452,-1.779151 3.050452,-2.539306 -5.8e-5,-0.722516 -1.477972,-2.557611 -3.050452,-2.557403 z m 6.13e-4,0.732316 c 1.46093,8e-6 2.091476,1.238378 2.091443,1.796673 0,0.488498 -0.630515,1.79666 -2.091443,1.796668 -1.460928,-8e-6 -2.165303,-1.252379 -2.165272,-1.796668 0.02506,-0.5023 0.704343,-1.796665 2.165272,-1.796673 z"
       sodipodi:nodetypes="cccccscscs" /><ellipse
       style="fill:#fafafa;fill-opacity:1;stroke:none;stroke-width:1.13784;stroke-dasharray:none;stroke-opacity:1;paint-order:markers stroke fill"
       id="path1071"
       cx="57.771072"
       cy="60.492672"
       rx="1.6090199"
       ry="1.5558033" /><path
       style="fill:#c0c0c0;fill-opacity:1;stroke:none;stroke-width:1.43867;stroke-dasharray:none;stroke-opacity:1;paint-order:markers stroke fill"
       d="m 66.098699,60.583395 c 1.021894,0 2.237431,0.793073 3.392561,0.783578 1.17974,-0.0098 2.179821,-0.785207 3.4525,-0.779213 0.107901,5.09e-4 0.09345,0.359637 0,0.413582 -1.061553,0.612887 -2.25521,0.964295 -3.464491,0.988999 -1.145455,0.02339 -2.209666,-0.245683 -3.320632,-0.8871 -0.129206,-0.0746 -0.209133,-0.519846 -0.05995,-0.519846 z"
       id="path4992"
       sodipodi:nodetypes="ssssssss" /><ellipse
       style="fill:#c0c0c0;stroke-width:0.760889;paint-order:markers stroke fill;fill-opacity:1"
       id="path389"
       cx="66.876221"
       cy="61.388466"
       rx="0.41845238"
       ry="0.58963746" /><ellipse
       style="fill:#c0c0c0;stroke-width:0.760889;paint-order:markers stroke fill;fill-opacity:1"
       id="ellipse391"
       cx="72.174438"
       cy="61.33992"
       rx="0.41845238"
       ry="0.58963746" /><ellipse
       style="fill:#c0c0c0;stroke-width:0.760889;paint-order:markers stroke fill;fill-opacity:1"
       id="ellipse393"
       cx="68.550102"
       cy="61.880264"
       rx="0.41845238"
       ry="0.58963746" /><ellipse
       style="fill:#c0c0c0;stroke-width:0.760889;paint-order:markers stroke fill;fill-opacity:1"
       id="ellipse397"
       cx="70.490196"
       cy="61.899284"
       rx="0.41845238"
       ry="0.58963746" /><path
       id="path515"
       style="fill:#fafafa;stroke-width:0.839999;paint-order:markers stroke fill"
       d="M 72.380595 13.448792 L 71.801302 14.031185 L 73.95776 16.2295 L 74.55824 15.626436 C 74.070873 14.515218 73.353222 13.776125 72.380595 13.448792 z M 70.739868 15.098303 L 64.69941 21.169767 L 63.828145 24.218677 L 66.79799 23.426477 L 72.896842 17.296619 L 70.739868 15.098303 z " /><rect
       style="fill:#fafafa;stroke-width:0.611769;paint-order:markers stroke fill"
       id="rect793"
       width="3.9594412"
       height="3.0831769"
       x="78.459991"
       y="59.557175"
       rx="0.79594302"
       ry="0.79594302" /><path
       id="rect795"
       style="fill:#fafafa;stroke-width:0.688523;paint-order:markers stroke fill"
       d="m 79.272146,57.875851 c -0.440952,0 -0.795901,0.35495 -0.795901,0.795902 v 1.474895 c 0,0.440952 0.354949,0.796325 0.795901,0.796325 h 1.39484 v -0.427812 h -1.050472 c -0.289994,0 -0.523541,-0.233546 -0.523541,-0.523542 v -0.969991 c 0,-0.289996 0.233547,-0.523542 0.523541,-0.523542 h 1.64653 c 0.289994,0 0.52354,0.233546 0.52354,0.523542 v 0.03897 h 0.616729 v -0.388843 c 0,-0.440953 -0.35495,-0.795902 -0.795902,-0.795902 z"
       sodipodi:nodetypes="ssssccssssssccsss" /><rect
       style="fill:#fafafa;stroke-width:0.624005;paint-order:markers stroke fill"
       id="rect803"
       width="4.0386291"
       height="3.1448395"
       x="86.115593"
       y="59.543156"
       rx="0.81186169"
       ry="0.81186169" /><path
       id="path805"
       style="fill:#fafafa;stroke-width:0.702294;paint-order:markers stroke fill"
       d="m 86.943994,57.828207 c -0.449771,0 -0.811819,0.362049 -0.811819,0.81182 v 1.504392 c 0,0.449771 0.362048,0.812252 0.811819,0.812252 h 1.422736 v -0.436369 h -1.071481 c -0.295794,0 -0.534012,-0.238217 -0.534012,-0.534013 v -0.98939 c 0,-0.295796 0.238218,-0.534013 0.534012,-0.534013 h 1.67946 c 0.295794,0 0.534011,0.238217 0.534011,0.534013 v 1.32132 h 0.629063 v -1.678194 c 0,-0.449771 -0.362049,-0.81182 -0.811819,-0.81182 z"
       sodipodi:nodetypes="ssssccssssssccsss" /><path
       sodipodi:type="star"
       style="fill:#ffffff;fill-opacity:1;stroke-width:0.839999;paint-order:markers stroke fill"
       id="path316"
       inkscape:flatsided="false"
       sodipodi:sides="5"
       sodipodi:cx="43.370537"
       sodipodi:cy="73.262283"
       sodipodi:r1="6.1134734"
       sodipodi:r2="3.0567369"
       sodipodi:arg1="1.0471976"
       sodipodi:arg2="1.6755161"
       inkscape:rounded="0"
       inkscape:randomized="0"
       d="m 46.427273,78.556707 -3.376252,-2.254432 -3.771197,1.503204 1.100773,-3.907664 -2.594996,-3.122106 4.056567,-0.160638 2.167401,-3.432771 1.406324,3.808385 3.934523,1.000536 -3.187411,2.514349 z"
       inkscape:transform-center-x="1.166399"
       transform="matrix(0.68916805,-0.0761057,0.0761057,0.68916805,8.4716104,26.082262)"
       inkscape:transform-center-y="0.0038323482" /><path
       style="fill:none;stroke:#fafafa;stroke-width:0.64;stroke-dasharray:none;stroke-opacity:1;paint-order:markers stroke fill;stroke-linejoin:round;stroke-linecap:round"
       d="m 59.278737,77.457214 -2.534209,-2.61279 -0.569706,-3.143206 3.575395,-1.669829 3.182498,1.925214 -0.589352,3.261075 z"
       id="path3192" /><path
       style="fill:none;stroke:#fafafa;stroke-width:0.64;stroke-dasharray:none;stroke-opacity:1;paint-order:markers stroke fill;stroke-linejoin:round;stroke-linecap:round"
       d="m 56.273047,71.720863 3.044981,2.632435 3.55575,-2.337759"
       id="path3194" /><path
       style="fill:none;stroke:#fafafa;stroke-width:0.64;stroke-dasharray:none;stroke-opacity:1;paint-order:markers stroke fill;stroke-linejoin:round;stroke-linecap:round"
       d="m 59.305006,77.398782 -0.0017,-3.065633"
       id="path3196" /><path
       style="fill:none;stroke:#fafafa;stroke-width:0.74;stroke-dasharray:none;stroke-opacity:1;paint-order:markers stroke fill;stroke-linejoin:round;stroke-linecap:round"
       d="m 71.93362,77.457214 -2.534209,-2.61279 -0.569706,-3.143206 3.575395,-1.669829 3.182498,1.925214 -0.589352,3.261075 z"
       id="path4690" /><path
       style="fill:none;stroke:#fafafa;stroke-width:0.388399;stroke-dasharray:none;stroke-opacity:1;paint-order:markers stroke fill;stroke-linejoin:round;stroke-linecap:round"
       d="m 72.062983,75.70965 -1.330115,-1.37136 -0.299018,-1.649755 1.876596,-0.876434 1.670378,1.010476 -0.309329,1.711621 z"
       id="path4698" /><path
       id="path5468"
       style="fill:none;fill-opacity:1;stroke:#fafafa;stroke-width:1.05202;stroke-dasharray:none;stroke-opacity:1;paint-order:markers stroke fill"
       d="m 17.864047,42.565724 c -4.5735,1.38e-4 -8.2808718,3.707935 -8.280485,8.281434 0.00221,3.105295 1.741588,5.948351 4.505363,7.364124 -0.02933,0.146944 -0.04463,0.299035 -0.04463,0.454857 v 0.826149 c 0,1.270809 1.022945,2.293277 2.29375,2.293277 h 2.98221 c 1.270807,0 2.293751,-1.022468 2.293751,-2.293277 v -0.826149 c 0,-0.144073 -0.01328,-0.285046 -0.03846,-0.421621 2.799318,-1.40345 4.567515,-4.26593 4.569459,-7.39736 3.87e-4,-4.573684 -3.707275,-8.281558 -8.280959,-8.281434 z m -0.140066,3.704378 c 2.379955,-2.7e-5 4.309297,1.929315 4.30927,4.30927 -2.36e-4,2.37977 -1.9295,4.308822 -4.30927,4.308796 -2.37977,2.6e-5 -4.309035,-1.929026 -4.309271,-4.308796 -2.7e-5,-2.379955 1.929315,-4.309297 4.309271,-4.30927 z"
       sodipodi:nodetypes="sccssssssccssccccc" /><path
       d="m 17.689197,62.442141 c -1.81967,-5.3e-5 -3.294891,1.474954 -3.295102,3.294624 -5.6e-5,1.819859 1.475244,3.29516 3.295102,3.295107 1.819858,5.3e-5 3.295156,-1.475249 3.295101,-3.295107 -2.11e-4,-1.819669 -1.475432,-3.294677 -3.295101,-3.294624 z"
       style="fill:none;fill-opacity:1;stroke:#fafafa;stroke-width:1.05202;stroke-dasharray:none;stroke-opacity:1;paint-order:markers stroke fill"
       id="path5516" /><path
       d="m 17.725578,46.155294 c -2.416351,-7.2e-5 -4.375305,1.9586 -4.375584,4.374949 -7.5e-5,2.4166 1.958983,4.375662 4.375584,4.37559 2.416599,7.2e-5 4.375656,-1.958991 4.375582,-4.37559 -2.78e-4,-2.416348 -1.959233,-4.375021 -4.375582,-4.374949 z"
       style="fill:#ffffff;fill-opacity:1;stroke:none;stroke-width:0.542503;paint-order:markers stroke fill"
       id="path5536" /><rect
       style="fill:none;stroke:#fafafa;stroke-width:0.34499999;stroke-dasharray:none;stroke-opacity:1;paint-order:markers stroke fill;stroke-linejoin:round;stroke-linecap:round"
       id="rect8636"
       width="5.991188"
       height="5.991188"
       x="79.181679"
       y="70.639465"
       rx="0"
       ry="0" /><rect
       style="fill:none;stroke:#fafafa;stroke-width:0.379046;stroke-dasharray:none;stroke-opacity:1;paint-order:markers stroke fill;stroke-linejoin:round;stroke-linecap:round"
       id="rect8638"
       width="3.3587792"
       height="5.9184222"
       x="80.534286"
       y="70.681358" /><rect
       style="fill:none;stroke:#fafafa;stroke-width:0.396355;stroke-dasharray:none;stroke-opacity:1;paint-order:markers stroke fill;stroke-linejoin:round;stroke-linecap:round"
       id="rect8640"
       width="0.018640172"
       height="5.842124"
       x="82.20945"
       y="70.707047" /><rect
       style="fill:none;stroke:#fafafa;stroke-width:0.379046;stroke-dasharray:none;stroke-opacity:1;paint-order:markers stroke fill;stroke-linejoin:round;stroke-linecap:round"
       id="rect8644"
       width="3.3587792"
       height="5.9184222"
       x="-75.278046"
       y="79.223572"
       transform="rotate(-90)" /><rect
       style="fill:none;stroke:#fafafa;stroke-width:0.396355;stroke-dasharray:none;stroke-opacity:1;paint-order:markers stroke fill;stroke-linejoin:round;stroke-linecap:round"
       id="rect8646"
       width="0.018640172"
       height="5.842124"
       x="-73.602882"
       y="79.24926"
       transform="rotate(-90)" /><path
       style="fill:none;stroke:#fafafa;stroke-width:0.508321;paint-order:markers stroke fill"
       d="m 91.698565,71.205921 v 2.778548 l -2.343105,2.343107 2.353475,-2.353476 2.301633,2.301637"
       id="path489"
       sodipodi:nodetypes="ccccc" /><circle
       style="fill:#ffffff;fill-opacity:1;stroke:#fafafa;stroke-width:0.508321;paint-order:markers stroke fill"
       id="path543"
       cx="89.313995"
       cy="76.28611"
       r="0.72573954" /><circle
       style="fill:#ffffff;fill-opacity:1;stroke:#fafafa;stroke-width:0.508321;paint-order:markers stroke fill"
       id="circle545"
       cx="94.062408"
       cy="76.28611"
       r="0.72573954" /><circle
       style="fill:#ffffff;fill-opacity:1;stroke:#fafafa;stroke-width:0.508321;paint-order:markers stroke fill"
       id="circle547"
       cx="91.719315"
       cy="71.102249"
       r="0.72573954" /><path
       style="fill:none;stroke:#fafafa;stroke-width:0.58938;paint-order:markers stroke fill"
       d="m 102.10737,70.667303 v 3.142713 l -2.606903,2.637481 2.619213,-2.649209 2.62123,2.717771"
       id="path1103"
       sodipodi:nodetypes="ccccc" /><path
       sodipodi:type="star"
       style="fill:#ffffff;fill-opacity:1;stroke:none;stroke-width:0.397143;stroke-linejoin:round;stroke-dasharray:none;paint-order:markers stroke fill"
       id="path1211"
       inkscape:flatsided="true"
       sodipodi:sides="3"
       sodipodi:cx="98.612457"
       sodipodi:cy="71.594872"
       sodipodi:r1="0.82879424"
       sodipodi:r2="0.41439718"
       sodipodi:arg1="1.0471976"
       sodipodi:arg2="2.0943952"
       inkscape:rounded="0"
       inkscape:randomized="0"
       d="m 99.026854,72.312628 -1.243191,-0.717757 1.243191,-0.717756 z"
       inkscape:transform-center-x="-0.21224025"
       inkscape:transform-center-y="-0.42879295"
       transform="matrix(1.0443427,-0.57898922,0.60295152,1.0028388,-44.038474,55.983272)" /><path
       sodipodi:type="star"
       style="fill:#ffffff;fill-opacity:1;stroke:none;stroke-width:0.397143;stroke-linejoin:round;stroke-dasharray:none;paint-order:markers stroke fill"
       id="path1215"
       inkscape:flatsided="true"
       sodipodi:sides="3"
       sodipodi:cx="98.612457"
       sodipodi:cy="71.594872"
       sodipodi:r1="0.82879424"
       sodipodi:r2="0.41439718"
       sodipodi:arg1="1.0471976"
       sodipodi:arg2="2.0943952"
       inkscape:rounded="0"
       inkscape:randomized="0"
       d="m 99.026854,72.312628 -1.243191,-0.717757 1.243191,-0.717756 z"
       inkscape:transform-center-x="0.14032429"
       inkscape:transform-center-y="0.15345992"
       transform="matrix(-0.31211067,1.1185212,-1.1648128,-0.29970686,219.03842,-12.212223)" /><g
       sodipodi:type="inkscape:box3d"
       id="g3709"
       style="fill:#ffffff;fill-opacity:1;stroke:#fafafa;stroke-width:1.50253;paint-order:markers stroke fill"
       inkscape:perspectiveID="#perspective1331"
       inkscape:corner0="-0.16509661 : 0.12018039 : 0 : 1"
       inkscape:corner7="-0.18526744 : 0.11472052 : 0.25 : 1"><path
         sodipodi:type="inkscape:box3dside"
         id="path3715"
         style="fill:#8686bf;fill-rule:evenodd;stroke:none;stroke-linejoin:round"
         inkscape:box3dsidetype="3"
         d="m 161.10847,350.10797 4.33247,4.81666 -2.29203,-6.29728 -4.27708,-4.66452 z"
         points="165.44094,354.92463 163.14891,348.62735 158.87183,343.96283 161.10847,350.10797 " /><path
         sodipodi:type="inkscape:box3dside"
         id="path3717"
         style="fill:#d7d7ff;fill-rule:evenodd;stroke:none;stroke-linejoin:round"
         inkscape:box3dsidetype="14"
         d="m 165.44094,354.92463 -2.29203,-6.29728 7.74005,-45.33344 1.75386,4.81867 z"
         points="163.14891,348.62735 170.88896,303.29391 172.64282,308.11258 165.44094,354.92463 " /><path
         sodipodi:type="inkscape:box3dside"
         id="path3719"
         style="fill:#afafde;fill-rule:evenodd;stroke:none;stroke-linejoin:round"
         inkscape:box3dsidetype="13"
         d="m 158.87183,343.96283 4.27708,4.66452 7.74005,-45.33344 -3.4354,-2.7468 z"
         points="163.14891,348.62735 170.88896,303.29391 167.45356,300.54711 158.87183,343.96283 " /><path
         sodipodi:type="inkscape:box3dside"
         id="path3713"
         style="fill:#4d4d9f;fill-rule:evenodd;stroke:none;stroke-linejoin:round"
         inkscape:box3dsidetype="5"
         d="m 161.10847,350.10797 4.33247,4.81666 7.20188,-46.81205 -3.46801,-2.83639 z"
         points="165.44094,354.92463 172.64282,308.11258 169.17481,305.27619 161.10847,350.10797 " /><path
         sodipodi:type="inkscape:box3dside"
         id="path3711"
         style="fill:#353564;fill-rule:evenodd;stroke:none;stroke-linejoin:round"
         inkscape:box3dsidetype="6"
         d="m 161.10847,350.10797 -2.23664,-6.14514 8.58173,-43.41572 1.72125,4.72908 z"
         points="158.87183,343.96283 167.45356,300.54711 169.17481,305.27619 161.10847,350.10797 " /><path
         sodipodi:type="inkscape:box3dside"
         id="path3721"
         style="fill:#e9e9ff;fill-rule:evenodd;stroke:none;stroke-linejoin:round"
         inkscape:box3dsidetype="11"
         d="m 169.17481,305.27619 3.46801,2.83639 -1.75386,-4.81867 -3.4354,-2.7468 z"
         points="172.64282,308.11258 170.88896,303.29391 167.45356,300.54711 169.17481,305.27619 " /></g><path
       style="fill:#ffffff;fill-opacity:1;stroke:#fafafa;stroke-width:0.388005;stroke-linejoin:round;stroke-dasharray:none;stroke-opacity:1;paint-order:markers stroke fill"
       d="m 110.83932,76.002992 -1.32809,-1.369284 -0.29859,-1.64726 1.87377,-0.875105 1.66785,1.008944 -0.30887,1.709031 z"
       id="path3777" /><path
       sodipodi:type="star"
       style="fill:#ffffff;fill-opacity:1;stroke:none;stroke-width:0.397143;stroke-linejoin:round;stroke-dasharray:none;paint-order:markers stroke fill"
       id="path5349"
       inkscape:flatsided="true"
       sodipodi:sides="3"
       sodipodi:cx="98.612457"
       sodipodi:cy="71.594872"
       sodipodi:r1="0.82879424"
       sodipodi:r2="0.41439718"
       sodipodi:arg1="1.0471976"
       sodipodi:arg2="2.0943952"
       inkscape:rounded="0"
       inkscape:randomized="0"
       d="m 99.026854,72.312628 -1.243191,-0.717757 1.243191,-0.717756 z"
       inkscape:transform-center-x="-0.14032742"
       inkscape:transform-center-y="0.15345992"
       transform="matrix(0.31211067,1.1185212,1.1648128,-0.29970686,-14.877038,-12.212223)" /><path
       id="path1115"
       style="fill:#ffffff;fill-opacity:1;stroke:#fafafa;stroke-width:0.455937;stroke-linecap:square;stroke-linejoin:miter;stroke-dasharray:none;stroke-opacity:1;paint-order:markers stroke fill"
       inkscape:transform-center-x="0.068449932"
       inkscape:transform-center-y="0.77816011"
       d="m 111.0495,69.903659 -0.75912,1.331109 -0.33771,0.593793 1.16647,-0.544546 1.14468,0.692992 -0.43903,-0.751386 z" /><path
       id="path1117"
       style="fill:#ffffff;fill-opacity:1;stroke:#fafafa;stroke-width:0.455936;stroke-linecap:square;stroke-linejoin:miter;stroke-dasharray:none;stroke-opacity:1;paint-order:markers stroke fill"
       inkscape:transform-center-x="-0.068453533"
       inkscape:transform-center-y="-0.77815747"
       d="m 112.01265,76.08278 -1.21924,0.890689 -0.57409,-0.591682 0.0478,0.0816 0.7753,1.322665 0.75842,-1.331813 z" /><path
       id="path3789"
       style="color:#000000;fill:#fafafa;stroke-linejoin:round;-inkscape-stroke:none;paint-order:markers stroke fill"
       d="M 120.049 70.265995 A 0.31047155 0.31047155 0 0 0 119.90017 70.294934 L 116.90243 71.695365 A 0.31047155 0.31047155 0 0 0 116.72828 72.033329 L 117.2068 74.667794 A 0.31047155 0.31047155 0 0 0 117.28896 74.827991 L 119.4139 77.019588 A 0.31047155 0.31047155 0 0 0 119.82008 77.054728 L 122.39046 75.175773 A 0.31047155 0.31047155 0 0 0 122.51345 74.980436 L 123.008 72.246236 A 0.31047155 0.31047155 0 0 0 122.86123 71.925842 L 120.19318 70.310437 A 0.31047155 0.31047155 0 0 0 120.049 70.265995 z "
       inkscape:label="Cube" /><path
       id="path592"
       style="fill:#ffffff;stroke:none;stroke-width:0.442085;stroke-linecap:square;paint-order:markers stroke fill"
       d="m 128.85606,70.506001 a 1.7484686,2.1742105 0 0 0 -1.74886,2.174035 1.7484686,2.1742105 0 0 0 1.17541,2.052877 1.3307495,1.6715874 0 0 0 -0.05,0.450161 1.3307495,1.6715874 0 0 0 1.33089,1.671652 1.3307495,1.6715874 0 0 0 0.78784,-0.324304 c -0.0522,-0.110183 -0.0819,-0.234825 -0.0819,-0.367126 v -4.676552 c 0,-0.02691 9.3e-4,-0.05367 0.004,-0.0799 A 1.7484686,2.1742105 0 0 0 128.8567,70.506 Z" /><path
       id="rect648"
       style="fill:#ffffff;stroke:none;stroke-width:0.210951;stroke-linecap:square;paint-order:markers stroke fill"
       d="m 130.90894,70.947806 c -0.28127,0.09911 -0.4832,0.379848 -0.4832,0.713364 v 4.327702 c 0,0.333536 0.2019,0.614784 0.4832,0.713886 z"
       sodipodi:nodetypes="csscc" /><path
       id="path1264"
       style="fill:#8e8e8e;fill-opacity:1;stroke:none;stroke-width:0.442085;stroke-linecap:square;paint-order:markers stroke fill"
       d="m 133.25247,70.506001 a 1.7484686,2.1742105 0 0 1 1.74886,2.174035 1.7484686,2.1742105 0 0 1 -1.17541,2.052877 1.3307495,1.6715874 0 0 1 0.05,0.450161 1.3307495,1.6715874 0 0 1 -1.33089,1.671652 1.3307495,1.6715874 0 0 1 -0.78784,-0.324304 c 0.0522,-0.110183 0.0821,-0.234825 0.0821,-0.367126 v -4.676552 c 0,-0.02691 -9.4e-4,-0.05367 -0.004,-0.0799 A 1.7484686,2.1742105 0 0 1 133.25203,70.506 Z" /><path
       d="m 131.19821,70.965025 v 5.74503 c 0.2741,-0.103319 0.46946,-0.380592 0.46946,-0.708664 v -4.327703 c 0,-0.328084 -0.19533,-0.60535 -0.46946,-0.708663 z"
       style="fill:#8e8e8e;fill-opacity:1;stroke:none;stroke-width:0.210951;stroke-linecap:square;paint-order:markers stroke fill"
       id="path1338" /><ellipse
       style="fill:none;fill-opacity:1;stroke:#fafafa;stroke-width:0.357205;stroke-linecap:square;stroke-dasharray:none;stroke-dashoffset:0;stroke-opacity:1;paint-order:markers stroke fill"
       id="path1808"
       cx="141.88045"
       cy="73.736992"
       rx="2.5673246"
       ry="1.020025" /><ellipse
       style="fill:none;fill-opacity:1;stroke:#fafafa;stroke-width:0.268148;stroke-linecap:square;stroke-dasharray:none;stroke-dashoffset:0;stroke-opacity:1;paint-order:markers stroke fill"
       id="ellipse1914"
       cx="-73.736992"
       cy="141.88045"
       rx="2.5287216"
       ry="2.5924299"
       transform="rotate(-90)" /><ellipse
       style="fill:none;fill-opacity:1;stroke:#fafafa;stroke-width:0.294572;stroke-linecap:square;stroke-dasharray:none;stroke-dashoffset:0;stroke-opacity:1;paint-order:markers stroke fill"
       id="ellipse1916"
       cx="-73.736992"
       cy="141.88045"
       rx="2.4366086"
       ry="1.1717184"
       transform="rotate(-90)" /><ellipse
       style="fill:none;fill-opacity:1;stroke:#fafafa;stroke-width:0.556107;stroke-linecap:square;stroke-dasharray:none;stroke-dashoffset:0;stroke-opacity:1;paint-order:markers stroke fill"
       id="path1918"
       cx="139.30933"
       cy="73.727379"
       rx="0.2740519"
       ry="0.28736085" /><ellipse
       style="fill:none;fill-opacity:1;stroke:#fafafa;stroke-width:0.556107;stroke-linecap:square;stroke-dasharray:none;stroke-dashoffset:0;stroke-opacity:1;paint-order:markers stroke fill"
       id="circle1920"
       cx="144.43816"
       cy="73.727379"
       rx="0.2740519"
       ry="0.28736085" /><ellipse
       style="fill:none;fill-opacity:1;stroke:#fafafa;stroke-width:0.556107;stroke-linecap:square;stroke-dasharray:none;stroke-dashoffset:0;stroke-opacity:1;paint-order:markers stroke fill"
       id="circle1924"
       cx="-76.301414"
       cy="141.81894"
       transform="rotate(-90)"
       rx="0.28736085"
       ry="0.2740519" /><ellipse
       style="fill:none;fill-opacity:1;stroke:#fafafa;stroke-width:0.556107;stroke-linecap:square;stroke-dasharray:none;stroke-dashoffset:0;stroke-opacity:1;paint-order:markers stroke fill"
       id="circle1926"
       cx="-71.153343"
       cy="141.81894"
       transform="rotate(-90)"
       rx="0.28736085"
       ry="0.2740519" /><path
       id="path3464"
       style="fill:#ffffff;fill-opacity:1;stroke:#ffffff;stroke-width:0.47;stroke-linejoin:round;stroke-dasharray:none;stroke-opacity:1;paint-order:markers stroke fill"
       d="m 151.95972,70.330074 -3.23546,1.511536 0.51573,2.844271 2.2934,2.364713 2.77347,-2.027266 0.40824,-2.257744 -2.94687,2.957717 -1.60944,-0.11758 -0.0551,-1.671975 2.93808,-2.948932 z"
       sodipodi:nodetypes="ccccccccccc" /><path
       id="rect918"
       style="fill:#ffffff;fill-opacity:1;stroke:#ffffff;stroke-width:0.905037;stroke-linecap:round;stroke-linejoin:round;stroke-dasharray:none;stroke-opacity:1;paint-order:markers stroke fill"
       d="m 43.521375,80.738054 v 2.760038 h -2.760039 v 0.687813 h 2.760039 v 2.760039 h 0.687813 v -2.760039 h 2.760038 v -0.687813 h -2.760038 v -2.760038 z" /><path
       id="path370"
       style="display:inline;fill:#ffffff;fill-opacity:1;stroke:#ffffff;stroke-width:0.905037;stroke-linecap:round;stroke-linejoin:round;stroke-dasharray:none;stroke-opacity:1;paint-order:markers stroke fill"
       d="m 58.875003,80.738054 v 2.760038 h -2.760039 v 0.687813 h 2.760039 v 2.760039 h 0.687813 v -2.760039 h 2.760038 v -0.687813 h -2.760038 v -2.760038 z" /><g
       id="path1031"
       transform="translate(0,0.30871639)"><path
         style="color:#000000;fill:#ffffff;stroke-width:1.705;stroke-linecap:round;stroke-linejoin:round;-inkscape-stroke:none;paint-order:markers stroke fill"
         d="m 58.875003,80.429338 v 2.760038 h -2.760039 v 0.687813 h 2.760039 v 2.760039 h 0.687813 v -2.760039 h 2.760038 v -0.687813 h -2.760038 v -2.760038 z"
         id="path1086" /></g><g
       id="path1150" /><path
       id="rect1214"
       style="fill:#ffffff;fill-opacity:1;stroke:none;stroke-width:1.705;stroke-linecap:round;stroke-linejoin:round;stroke-dasharray:none;stroke-opacity:1;paint-order:markers stroke fill"
       d="m 70.657604,80.945198 c -0.221697,0 -0.399976,0.178281 -0.399976,0.399975 v 0.100253 h -0.21239 c -0.199517,0 -0.360184,0.117728 -0.360184,0.360184 v 0.100253 h 4.65708 V 81.80561 c 0,-0.199514 -0.160667,-0.360184 -0.360185,-0.360184 h -0.194303 v -0.100253 c 0,-0.221694 -0.17828,-0.399975 -0.399976,-0.399975 z m -0.826823,1.43444 0.275435,3.830087 c 0.01621,0.198857 0.160668,0.360185 0.360185,0.360185 h 3.099553 c 0.199515,0 0.346172,-0.161161 0.360184,-0.360185 l 0.237712,-3.830087 z m 0.695109,0.592212 c 0.202303,0 0.345302,0.187738 0.365352,0.419612 l 0.186491,2.156805 c 0.02005,0.231873 -0.163049,0.420129 -0.365352,0.420129 -0.202303,0 -0.344787,-0.188256 -0.364836,-0.420129 l -0.186491,-2.156805 c -0.02005,-0.231874 0.162533,-0.419612 0.364836,-0.419612 z m 1.523877,0 c 0.202303,0 0.364836,0.186872 0.364836,0.419612 v 2.156805 c 0,0.232739 -0.162533,0.420129 -0.364836,0.420129 -0.202303,0 -0.365352,-0.18739 -0.365352,-0.420129 v -2.156805 c 0,-0.23274 0.163049,-0.419612 0.365352,-0.419612 z m 1.452366,0 c 0.202303,0 0.38367,0.187594 0.365353,0.419612 l -0.170274,2.156805 c -0.01832,0.232018 -0.16305,0.420129 -0.365353,0.420129 -0.202302,0 -0.383152,-0.188111 -0.364835,-0.420129 l 0.170274,-2.156805 c 0.01832,-0.232018 0.162533,-0.419612 0.364835,-0.419612 z"
       sodipodi:nodetypes="sscssccsscsssccsscccsssssssssssssssssssss" /><path
       id="path371"
       style="fill:#ffffff;fill-opacity:1;stroke:#fafafa;stroke-width:0.520044;stroke-linejoin:round;stroke-dasharray:none;stroke-opacity:1;paint-order:markers stroke fill"
       d="m 161.94293,70.68849 -2.51108,1.172927 0.40002,2.207795 1.10772,1.141946 -0.33535,-1.849071 2.75077,-1.284348 0.73646,0.445147 0.087,-0.482107 z" /><path
       style="fill:#ffffff;fill-opacity:1;stroke:#fafafa;stroke-width:0.355291;stroke-linejoin:round;stroke-dasharray:none;stroke-opacity:1;paint-order:markers stroke fill"
       d="m 163.15383,76.732509 -1.21613,-1.253839 -0.2734,-1.508376 1.71578,-0.801323 1.52722,0.923878 -0.28281,1.564939 z"
       id="path378" /><path
       id="path441"
       style="fill:#fafafa;stroke-width:0.333828;paint-order:markers stroke fill"
       d="m 153.83356,71.066034 -0.23022,0.231452 0.85701,0.873641 0.23864,-0.239666 c -0.19369,-0.441614 -0.4789,-0.735341 -0.86543,-0.865427 z m -0.65205,0.655539 -2.5095,2.40142 -0.0103,0.947464 0.93602,0.04683 2.44098,-2.522093 z"
       sodipodi:nodetypes="ccccccccccc" /><rect
       style="fill:#ffffff;fill-opacity:1;stroke-width:1.43973;stroke-linecap:round;stroke-linejoin:round;paint-order:markers stroke fill"
       id="rect687"
       width="3.8463426"
       height="0.93095392"
       x="169.31927"
       y="70.931358"
       rx="0.46547696"
       ry="0.46547696" /><rect
       style="fill:#ffffff;fill-opacity:1;stroke-width:1.43973;stroke-linecap:round;stroke-linejoin:round;paint-order:markers stroke fill"
       id="rect1452"
       width="3.8463426"
       height="0.93095392"
       x="169.31927"
       y="75.676224"
       rx="0.46547696"
       ry="0.46547696" /><rect
       style="fill:#ffffff;fill-opacity:1;stroke-width:1.5787;stroke-linecap:round;stroke-linejoin:round;paint-order:markers stroke fill"
       id="rect1454"
       width="4.6247406"
       height="0.93095392"
       x="-76.201759"
       y="170.77695"
       rx="0.33811828"
       ry="0.38898993"
       transform="rotate(-90)" /><path
       id="path3059"
       style="fill:#ffffff;stroke:#ffffff;stroke-width:0.772044;stroke-linecap:round;stroke-linejoin:round;stroke-opacity:1;paint-order:markers stroke fill"
       inkscape:transform-center-x="-0.045482625"
       inkscape:transform-center-y="-0.47668833"
       d="m 181.91792,75.585358 -2.06498,0.006 -2.06496,-0.01007 1.02728,-1.791444 1.04121,-1.783387 1.0377,1.785429 z"
       sodipodi:nodetypes="ccccccc" /><path
       id="path3068"
       style="fill:#ffffff;stroke:#ffffff;stroke-width:0.772044;stroke-linecap:round;stroke-linejoin:round;stroke-opacity:1;paint-order:markers stroke fill"
       inkscape:transform-center-x="0.04548737"
       inkscape:transform-center-y="0.47670217"
       d="m 185.93506,72.072766 2.06498,-0.006 2.06496,0.0101 -1.02728,1.79144 -1.04121,1.78339 -1.0377,-1.78543 z"
       sodipodi:nodetypes="ccccccc" /><rect
       style="fill:none;fill-opacity:0.992157;stroke:#ffffff;stroke-width:0.686;stroke-dasharray:none;stroke-opacity:1;paint-order:markers stroke fill"
       id="rect4716"
       width="4.5062189"
       height="4.5062189"
       x="79.840668"
       y="81.628197"
       rx="1.0479589"
       ry="1.047959" /><rect
       style="fill:#ffffff;fill-opacity:1;stroke:#ffffff;stroke-width:0.686;stroke-dasharray:none;stroke-opacity:1;paint-order:markers stroke fill"
       id="rect4718"
       width="4.5062189"
       height="4.5062189"
       x="89.426987"
       y="81.628197"
       rx="1.0479589"
       ry="1.047959" /><path
       style="fill:#ffffff;fill-opacity:1;stroke:#ffffff;stroke-width:0.733;stroke-linecap:round;stroke-linejoin:round;stroke-dasharray:none;stroke-opacity:1;paint-order:markers stroke fill"
       d="m 104.50775,84.860063 h -4.890538 v -3.493429 h 2.077388 l 0.7505,0.847078 h 2.08429 z"
       id="path4925"
       sodipodi:nodetypes="ccccccc" /><path
       id="path4929"
       style="fill:#ffffff;fill-opacity:1;stroke:#ffffff;stroke-width:0.55099;stroke-linejoin:round;stroke-dasharray:none;stroke-opacity:1;paint-order:markers stroke fill"
       d="m 111.51777,80.314144 2.66082,1.242819 -0.33641,1.555494 h -1.89395 l -0.75034,-0.846976 h -1.90066 l -0.14779,-0.518866 z"
       sodipodi:nodetypes="cccccccc" /><path
       style="fill:#ffffff;fill-opacity:1;stroke:#ffffff;stroke-width:0.733;stroke-linecap:round;stroke-linejoin:round;stroke-dasharray:none;stroke-opacity:1;paint-order:markers stroke fill"
       d="m 113.49214,86.705022 h -4.89054 v -3.493429 h 2.0774 l 0.75049,0.847078 h 2.08428 z"
       id="path4927"
       sodipodi:nodetypes="ccccccc" /><path
       id="path6501"
       style="fill:#ffffff;stroke:#ffffff;stroke-width:0.772044;stroke-linecap:round;stroke-linejoin:round;stroke-opacity:1;paint-order:markers stroke fill"
       inkscape:transform-center-x="-0.47669763"
       inkscape:transform-center-y="0.04548717"
       d="m 194.38999,75.817319 -0.006,-2.06498 0.0101,-2.06496 1.79144,1.02728 1.78339,1.04121 -1.78543,1.0377 z"
       sodipodi:nodetypes="ccccccc" /><g
       id="path384"
       inkscape:label="path384" /><path
       id="path960"
       style="color:#000000;fill:#fafafa;stroke-linejoin:round;-inkscape-stroke:none;paint-order:markers stroke fill"
       d="M 60.271257 81.473063 L 60.271257 82.789262 L 62.518665 82.789262 L 60.418018 81.517505 A 0.31047155 0.31047155 0 0 0 60.273324 81.473063 A 0.31047155 0.31047155 0 0 0 60.271257 81.473063 z M 58.165959 82.417192 L 57.369108 82.789262 L 58.165959 82.789262 L 58.165959 82.417192 z M 57.25387 84.89456 L 57.431637 85.874862 A 0.31047155 0.31047155 0 0 0 57.513802 86.035059 L 58.165959 86.707886 L 58.165959 84.89456 L 57.25387 84.89456 z M 60.271257 84.89456 L 60.271257 87.947087 A 0.59847987 0.59847987 0 0 1 60.243868 88.116585 L 62.615299 86.382841 A 0.31047155 0.31047155 0 0 0 62.736222 86.187504 L 62.9698 84.89456 L 60.271257 84.89456 z " /><g
       id="path386" /><circle
       style="fill:#fbfbfb;fill-opacity:1;stroke:none;stroke-width:0.732999;stroke-linecap:round;stroke-linejoin:round;paint-order:markers stroke fill"
       id="path387"
       cx="119.71091"
       cy="81.219475"
       r="0.96321839" /><circle
       style="fill:#fbfbfb;fill-opacity:1;stroke:none;stroke-width:0.732999;stroke-linecap:round;stroke-linejoin:round;paint-order:markers stroke fill"
       id="circle1104"
       cx="119.71091"
       cy="83.719254"
       r="0.96321839" /><circle
       style="fill:#fbfbfb;fill-opacity:1;stroke:none;stroke-width:0.732999;stroke-linecap:round;stroke-linejoin:round;paint-order:markers stroke fill"
       id="circle1106"
       cx="119.71091"
       cy="86.173164"
       r="0.96321839" /><path
       id="path3518"
       style="color:#000000;fill:#fafafa;stroke-linecap:round;stroke-linejoin:round;-inkscape-stroke:none;paint-order:markers stroke fill"
       d="M 131.1429 79.513493 C 130.301 79.514014 129.48065 79.773858 128.79162 80.257633 A 0.56655666 0.56655666 0 0 0 128.63401 81.014176 L 131.15944 79.83492 A 0.35752026 0.35752026 0 0 1 131.331 79.801331 A 0.35752026 0.35752026 0 0 1 131.49688 79.85249 L 134.56905 81.712842 A 0.35752026 0.35752026 0 0 1 134.73803 82.081812 L 134.16855 85.230457 A 0.35752026 0.35752026 0 0 1 134.02696 85.455249 L 133.46214 85.868144 L 133.63319 86.039193 A 0.56655666 0.56655666 0 0 0 134.49877 85.964779 C 134.98243 85.275911 135.24227 84.455204 135.24291 83.613501 A 0.56655666 0.56655666 0 0 0 135.24291 83.612984 A 0.56655666 0.56655666 0 0 0 135.24291 83.612467 A 0.56655666 0.56655666 0 0 0 135.24291 83.611951 A 0.56655666 0.56655666 0 0 0 135.24291 83.611434 C 135.24309 81.354696 133.39964 79.513641 131.1429 79.513493 z M 128.19424 81.167655 A 0.56655666 0.56655666 0 0 0 128.09244 81.169722 A 0.56655666 0.56655666 0 0 0 127.67644 81.431722 C 127.66513 81.449669 127.65439 81.467882 127.64337 81.485982 A 0.35752026 0.35752026 0 0 1 127.70745 81.447225 L 128.27796 81.180575 A 0.56655666 0.56655666 0 0 0 128.19424 81.167655 z M 127.50488 81.731962 C 127.2047 82.311382 127.04632 82.955388 127.04548 83.611434 C 127.04563 85.868169 128.88617 87.711103 131.1429 87.710925 A 0.56655666 0.56655666 0 0 0 131.14497 87.710925 C 131.91646 87.709825 132.67206 87.489325 133.32468 87.077889 A 0.56655666 0.56655666 0 0 0 133.42235 86.19939 L 133.24768 86.024723 L 131.06745 87.618941 A 0.35752026 0.35752026 0 0 1 130.59978 87.578634 L 128.15238 85.054757 A 0.35752026 0.35752026 0 0 1 128.05782 84.870272 L 127.50695 81.836348 A 0.35752026 0.35752026 0 0 1 127.50488 81.731962 z " /><path
       id="path3842"
       style="color:#000000;fill:#fafafa;stroke-linejoin:round;-inkscape-stroke:none;paint-order:markers stroke fill"
       d="m 131.30334,80.320304 a 0.31047155,0.31047155 0 0 0 -0.14883,0.02894 l -2.99774,1.400431 a 0.31047155,0.31047155 0 0 0 -0.17415,0.337964 l 0.47852,2.634465 a 0.31047155,0.31047155 0 0 0 0.0822,0.160197 l 2.12494,2.191597 a 0.31047155,0.31047155 0 0 0 0.40618,0.03514 l 2.57038,-1.878955 a 0.31047155,0.31047155 0 0 0 0.12299,-0.195337 l 0.49455,-2.7342 a 0.31047155,0.31047155 0 0 0 -0.14677,-0.320394 l -2.66805,-1.615405 a 0.31047155,0.31047155 0 0 0 -0.14418,-0.04444 z"
       inkscape:label="Cube" /><path
       id="rect389"
       style="fill:#fbfbfb;stroke-width:1.133;stroke-linecap:round;stroke-linejoin:round;paint-order:markers stroke fill;stroke:#000000;stroke-opacity:1"
       d="M 4.1987101 80.414213 C 3.7631614 80.414213 3.4127116 80.595053 3.4127116 80.819873 L 3.4127116 106.42813 C 3.4127116 106.65295 3.7631614 106.83379 4.1987101 106.83379 L 29.046289 106.83379 C 29.481838 106.83379 29.832288 106.65295 29.832288 106.42813 L 29.832288 80.819873 C 29.832288 80.595053 29.481838 80.414213 29.046289 80.414213 L 4.1987101 80.414213 z M 7.0527995 82.432178 L 25.969991 82.432178 L 16.511654 91.891032 L 7.0527995 82.432178 z M 5.4306763 84.17264 L 14.830103 93.572066 L 5.4306763 102.97149 L 5.4306763 84.17264 z M 27.814323 84.271342 L 27.814323 103.1937 L 18.353402 93.73278 L 27.814323 84.271342 z M 16.671851 95.413814 L 26.073344 104.81531 L 7.2703573 104.81531 L 16.671851 95.413814 z " /></g></svg>
