# Blender v3.2.2 OBJ File: ''
# www.blender.org
mtllib Eixo.mtl
o Cilindro
v 0.000000 0.002820 -50.684578
v 0.000000 0.002820 50.684574
v 0.002205 0.001758 -50.684578
v 0.002204 0.001760 50.684574
v 0.002749 -0.000628 -50.684578
v 0.002749 -0.000626 50.684578
v 0.001223 -0.002540 -50.684578
v 0.001224 -0.002539 50.684578
v -0.001223 -0.002540 -50.684578
v -0.001224 -0.002539 50.684578
v -0.002749 -0.000628 -50.684578
v -0.002749 -0.000626 50.684578
v -0.002205 0.001758 -50.684578
v -0.002204 0.001760 50.684574
v -50.684578 0.002820 0.000009
v 50.684578 0.002820 -0.000002
v -50.684582 0.001760 -0.002200
v 50.684578 0.001759 -0.002206
v -50.684582 -0.000626 -0.002744
v 50.684578 -0.000626 -0.002750
v -50.684582 -0.002542 -0.001216
v 50.684578 -0.002540 -0.001223
v -50.684578 -0.002539 0.001229
v 50.684578 -0.002540 0.001221
v -50.684574 -0.000625 0.002753
v 50.684578 -0.000625 0.002748
v -50.684574 0.001757 0.002211
v 50.684578 0.001758 0.002204
vt 1.000000 0.500000
vt 1.000000 1.000000
vt 0.857143 1.000000
vt 0.857143 0.500000
vt 0.714286 1.000000
vt 0.714286 0.500000
vt 0.571429 1.000000
vt 0.571429 0.500000
vt 0.428571 1.000000
vt 0.428571 0.500000
vt 0.285714 1.000000
vt 0.285714 0.500000
vt 0.437640 0.399638
vt 0.250000 0.490000
vt 0.062360 0.399638
vt 0.016017 0.196595
vt 0.145868 0.033767
vt 0.354132 0.033767
vt 0.483983 0.196595
vt 0.142857 1.000000
vt 0.142857 0.500000
vt 0.000000 1.000000
vt 0.000000 0.500000
vt 0.750000 0.490000
vt 0.937640 0.399638
vt 0.983983 0.196595
vt 0.854132 0.033767
vt 0.645868 0.033767
vt 0.516017 0.196595
vt 0.562360 0.399638
vt 1.000000 0.500000
vt 1.000000 1.000000
vt 0.857143 1.000000
vt 0.857143 0.500000
vt 0.714286 1.000000
vt 0.714286 0.500000
vt 0.571429 1.000000
vt 0.571429 0.500000
vt 0.428571 1.000000
vt 0.428571 0.500000
vt 0.285714 1.000000
vt 0.285714 0.500000
vt 0.437640 0.399638
vt 0.250000 0.490000
vt 0.062360 0.399638
vt 0.016017 0.196595
vt 0.145868 0.033767
vt 0.354132 0.033767
vt 0.483983 0.196595
vt 0.142857 1.000000
vt 0.142857 0.500000
vt 0.000000 1.000000
vt 0.000000 0.500000
vt 0.750000 0.490000
vt 0.937640 0.399638
vt 0.983983 0.196595
vt 0.854132 0.033767
vt 0.645868 0.033767
vt 0.516017 0.196595
vt 0.562360 0.399638
vn -0.6215 0.7834 0.0009
vn 0.6212 0.7837 0.0004
vn 0.6212 0.4889 -0.6124
vn -0.6217 0.4886 -0.6121
vn 0.6213 -0.1743 -0.7639
vn -0.6216 -0.1749 -0.7635
vn 0.6214 -0.7060 -0.3398
vn -0.6214 -0.7064 -0.3389
vn 0.6213 -0.7058 0.3404
vn -0.6210 -0.7059 0.3407
vn 0.6213 -0.1742 0.7640
vn -0.6207 -0.1747 0.7643
vn 0.6211 0.4886 0.6128
vn -0.6208 0.4881 0.6134
vn 0.0002 0.7836 -0.6212
vn -0.0002 0.7837 0.6211
vn 0.6125 0.4891 0.6209
vn 0.6127 0.4886 -0.6212
vn 0.7638 -0.1740 0.6216
vn 0.7641 -0.1743 -0.6211
vn 0.3400 -0.7058 0.6215
vn 0.3402 -0.7059 -0.6212
vn -0.3403 -0.7057 0.6214
vn -0.3398 -0.7060 -0.6213
vn -0.7640 -0.1739 0.6214
vn -0.7639 -0.1743 -0.6213
vn -0.6128 0.4890 0.6208
vn -0.6125 0.4887 -0.6213
usemtl X
s 1
f 15/1/1 16/2/2 18/3/3 17/4/4
f 17/4/4 18/3/3 20/5/5 19/6/6
f 19/6/6 20/5/5 22/7/7 21/8/8
f 21/8/8 22/7/7 24/9/9 23/10/10
f 23/10/10 24/9/9 26/11/11 25/12/12
f 18/13/3 16/14/2 28/15/13 26/16/11 24/17/9 22/18/7 20/19/5
f 25/12/12 26/11/11 28/20/13 27/21/14
f 27/21/14 28/20/13 16/22/2 15/23/1
f 15/24/1 17/25/4 19/26/6 21/27/8 23/28/10 25/29/12 27/30/14
usemtl Y
f 1/31/15 2/32/16 4/33/17 3/34/18
f 3/34/18 4/33/17 6/35/19 5/36/20
f 5/36/20 6/35/19 8/37/21 7/38/22
f 7/38/22 8/37/21 10/39/23 9/40/24
f 9/40/24 10/39/23 12/41/25 11/42/26
f 4/43/17 2/44/16 14/45/27 12/46/25 10/47/23 8/48/21 6/49/19
f 11/42/26 12/41/25 14/50/27 13/51/28
f 13/51/28 14/50/27 2/52/16 1/53/15
f 1/54/15 3/55/18 5/56/20 7/57/22 9/58/24 11/59/26 13/60/28
